<svg xmlns="http://www.w3.org/2000/svg" viewBox="0 0 800 500" width="800" height="500">
  <title>Zakey Smart Retail — Premium Smart Home Store</title>
  <defs>
    <linearGradient id="ret-floor" x1="0%" y1="0%" x2="0%" y2="100%">
      <stop offset="0%" stop-color="#f8f8f8"/>
      <stop offset="100%" stop-color="#eeeeee"/>
    </linearGradient>
    <linearGradient id="ret-ceiling" x1="0%" y1="0%" x2="0%" y2="100%">
      <stop offset="0%" stop-color="#f0f0f0"/>
      <stop offset="100%" stop-color="#e8e8e8"/>
    </linearGradient>
    <linearGradient id="ret-brandwall" x1="0%" y1="0%" x2="100%" y2="100%">
      <stop offset="0%" stop-color="#0d1535"/>
      <stop offset="100%" stop-color="#080e25"/>
    </linearGradient>
    <linearGradient id="ret-spotlight" cx="50%" cy="0%" r="100%" gradientUnits="objectBoundingBox">
      <stop offset="0%" stop-color="#fffef0" stop-opacity="0.7"/>
      <stop offset="100%" stop-color="#fffef0" stop-opacity="0"/>
    </linearGradient>
    <radialGradient id="ret-spot1" cx="50%" cy="0%" r="100%">
      <stop offset="0%" stop-color="#fffef0" stop-opacity="0.65"/>
      <stop offset="100%" stop-color="#fffef0" stop-opacity="0"/>
    </radialGradient>
    <radialGradient id="ret-spot2" cx="50%" cy="0%" r="100%">
      <stop offset="0%" stop-color="#fffef0" stop-opacity="0.6"/>
      <stop offset="100%" stop-color="#fffef0" stop-opacity="0"/>
    </radialGradient>
    <radialGradient id="ret-spot3" cx="50%" cy="0%" r="100%">
      <stop offset="0%" stop-color="#fffef0" stop-opacity="0.6"/>
      <stop offset="100%" stop-color="#fffef0" stop-opacity="0"/>
    </radialGradient>
    <radialGradient id="ret-cyanglow" cx="50%" cy="50%" r="50%">
      <stop offset="0%" stop-color="#00e5ff" stop-opacity="0.8"/>
      <stop offset="100%" stop-color="#00e5ff" stop-opacity="0"/>
    </radialGradient>
    <filter id="ret-blur">
      <feGaussianBlur stdDeviation="5"/>
    </filter>
    <filter id="ret-soft">
      <feGaussianBlur stdDeviation="2.5"/>
    </filter>
    <filter id="ret-glow">
      <feGaussianBlur stdDeviation="6" result="b"/>
      <feMerge><feMergeNode in="b"/><feMergeNode in="SourceGraphic"/></feMerge>
    </filter>
  </defs>

  <!-- CEILING: high, white/light -->
  <rect x="0" y="0" width="800" height="90" fill="url(#ret-ceiling)"/>
  <!-- Ceiling shadow at junction -->
  <rect x="0" y="86" width="800" height="7" fill="#d8d8d8" opacity="0.6"/>

  <!-- TRACK LIGHTING SYSTEM on ceiling -->
  <!-- Main track rails: dark gray running across ceiling -->
  <!-- Track 1 (left third) -->
  <rect x="60" y="30" width="200" height="5" rx="2" fill="#3a3a3a"/>
  <!-- Track 2 (center) -->
  <rect x="300" y="30" width="200" height="5" rx="2" fill="#3a3a3a"/>
  <!-- Track 3 (right) -->
  <rect x="540" y="30" width="220" height="5" rx="2" fill="#3a3a3a"/>
  <!-- Cross connectors -->
  <rect x="258" y="10" width="5" height="25" fill="#3a3a3a" opacity="0.7"/>
  <rect x="498" y="10" width="5" height="25" fill="#3a3a3a" opacity="0.7"/>

  <!-- Track spotlight fixtures -->
  <!-- Left track spots -->
  <ellipse cx="100" cy="33" rx="8" ry="5" fill="#2a2a2a"/>
  <ellipse cx="100" cy="36" rx="5" ry="3" fill="#444"/>
  <ellipse cx="160" cy="33" rx="8" ry="5" fill="#2a2a2a"/>
  <ellipse cx="160" cy="36" rx="5" ry="3" fill="#444"/>
  <ellipse cx="220" cy="33" rx="8" ry="5" fill="#2a2a2a"/>
  <ellipse cx="220" cy="36" rx="5" ry="3" fill="#444"/>
  <!-- Center track spots -->
  <ellipse cx="340" cy="33" rx="8" ry="5" fill="#2a2a2a"/>
  <ellipse cx="340" cy="36" rx="5" ry="3" fill="#444"/>
  <ellipse cx="400" cy="33" rx="8" ry="5" fill="#2a2a2a"/>
  <ellipse cx="400" cy="36" rx="5" ry="3" fill="#444"/>
  <ellipse cx="460" cy="33" rx="8" ry="5" fill="#2a2a2a"/>
  <ellipse cx="460" cy="36" rx="5" ry="3" fill="#444"/>
  <!-- Right track spots -->
  <ellipse cx="580" cy="33" rx="8" ry="5" fill="#2a2a2a"/>
  <ellipse cx="580" cy="36" rx="5" ry="3" fill="#444"/>
  <ellipse cx="640" cy="33" rx="8" ry="5" fill="#2a2a2a"/>
  <ellipse cx="640" cy="36" rx="5" ry="3" fill="#444"/>
  <ellipse cx="700" cy="33" rx="8" ry="5" fill="#2a2a2a"/>
  <ellipse cx="700" cy="36" rx="5" ry="3" fill="#444"/>

  <!-- Spotlight light cones (cone of light going down to products) -->
  <!-- Spot 1: hitting left pedestal -->
  <polygon points="160,38 130,250 190,250" fill="#fffef0" opacity="0.12"/>
  <ellipse cx="160" cy="250" rx="35" ry="10" fill="#fffef0" opacity="0.4" filter="url(#ret-soft)"/>
  <!-- Spot 2: hitting center pedestal -->
  <polygon points="400,38 368,280 432,280" fill="#fffef0" opacity="0.12"/>
  <ellipse cx="400" cy="280" rx="35" ry="10" fill="#fffef0" opacity="0.4" filter="url(#ret-soft)"/>
  <!-- Spot 3: hitting right pedestal -->
  <polygon points="640,38 610,265 670,265" fill="#fffef0" opacity="0.12"/>
  <ellipse cx="640" cy="265" rx="35" ry="10" fill="#fffef0" opacity="0.4" filter="url(#ret-soft)"/>
  <!-- General ambient ceiling glow for open bright feel -->
  <ellipse cx="400" cy="0" rx="400" ry="100" fill="#fffef0" opacity="0.15"/>

  <!-- BACK WALL: dark navy brand wall -->
  <rect x="0" y="92" width="800" height="345" fill="url(#ret-brandwall)"/>

  <!-- Brand wall with "ZAKEY" lettering and logo -->
  <!-- Large ZAKEY text centered -->
  <text x="400" y="210" font-family="sans-serif" font-size="72" fill="#ffffff" text-anchor="middle" font-weight="bold" letter-spacing="8" opacity="0.95">ZAKEY</text>
  <!-- Cyan underline accent -->
  <rect x="222" y="218" width="356" height="5" rx="2" fill="#00e5ff" opacity="0.9"/>
  <rect x="240" y="218" width="320" height="5" rx="2" fill="#00e5ff" opacity="0.6" filter="url(#ret-soft)"/>
  <!-- Zakey robot/mark logo silhouette above text -->
  <!-- Simple geometric robot mark -->
  <rect x="375" y="135" width="50" height="40" rx="5" fill="#00e5ff" opacity="0.18"/>
  <rect x="380" y="140" width="40" height="30" rx="4" fill="#00e5ff" opacity="0.22"/>
  <!-- Robot eye dots -->
  <circle cx="392" cy="152" r="4" fill="#00e5ff" opacity="0.6"/>
  <circle cx="408" cy="152" r="4" fill="#00e5ff" opacity="0.6"/>
  <!-- Robot antenna -->
  <rect x="398" y="132" width="4" height="10" fill="#00e5ff" opacity="0.45"/>
  <circle cx="400" cy="131" r="4" fill="#00e5ff" opacity="0.5"/>
  <!-- Robot chin/mouth bar -->
  <rect x="388" y="163" width="24" height="3" rx="1" fill="#00e5ff" opacity="0.4"/>
  <!-- Brand tagline below underline -->
  <text x="400" y="240" font-family="sans-serif" font-size="12" fill="#00e5ff" text-anchor="middle" letter-spacing="4" opacity="0.7">SMART HOME INTELLIGENCE</text>
  <!-- Decorative brand wall pattern: faint grid dots -->
  <g opacity="0.05" fill="#ffffff">
    <circle cx="50" cy="140" r="2"/>
    <circle cx="100" cy="140" r="2"/>
    <circle cx="150" cy="140" r="2"/>
    <circle cx="50" cy="190" r="2"/>
    <circle cx="100" cy="190" r="2"/>
    <circle cx="150" cy="190" r="2"/>
    <circle cx="50" cy="240" r="2"/>
    <circle cx="100" cy="240" r="2"/>
    <circle cx="150" cy="240" r="2"/>
    <circle cx="650" cy="140" r="2"/>
    <circle cx="700" cy="140" r="2"/>
    <circle cx="750" cy="140" r="2"/>
    <circle cx="650" cy="190" r="2"/>
    <circle cx="700" cy="190" r="2"/>
    <circle cx="750" cy="190" r="2"/>
    <circle cx="650" cy="240" r="2"/>
    <circle cx="700" cy="240" r="2"/>
    <circle cx="750" cy="240" r="2"/>
  </g>

  <!-- STAFF COUNTER at back: sleek white surface -->
  <rect x="285" y="275" width="230" height="55" rx="3" fill="#f5f5f5"/>
  <rect x="285" y="275" width="230" height="8" rx="2" fill="#e0e0e0"/>
  <!-- Counter edge detail -->
  <rect x="285" y="325" width="230" height="6" rx="1" fill="#e8e8e8"/>
  <!-- Counter monitor -->
  <rect x="360" y="258" width="80" height="18" rx="2" fill="#1a1a2a"/>
  <rect x="363" y="260" width="74" height="14" rx="1" fill="#0d1020"/>
  <!-- Monitor screen glow -->
  <ellipse cx="400" cy="276" rx="40" ry="6" fill="#0088ff" opacity="0.1" filter="url(#ret-soft)"/>
  <!-- Monitor stand -->
  <rect x="396" y="275" width="8" height="5" fill="#2a2a3a"/>

  <!-- FLOOR: polished white marble -->
  <rect x="0" y="438" width="800" height="62" fill="url(#ret-floor)"/>
  <!-- Floor tile grout grid lines -->
  <!-- Horizontal grout -->
  <line x1="0" y1="438" x2="800" y2="438" stroke="#d8d8d8" stroke-width="1.5"/>
  <line x1="0" y1="476" x2="800" y2="476" stroke="#d8d8d8" stroke-width="1" opacity="0.7"/>
  <!-- Vertical grout -->
  <line x1="80" y1="438" x2="80" y2="500" stroke="#d8d8d8" stroke-width="1" opacity="0.65"/>
  <line x1="160" y1="438" x2="160" y2="500" stroke="#d8d8d8" stroke-width="1" opacity="0.6"/>
  <line x1="240" y1="438" x2="240" y2="500" stroke="#d8d8d8" stroke-width="1" opacity="0.6"/>
  <line x1="320" y1="438" x2="320" y2="500" stroke="#d8d8d8" stroke-width="1" opacity="0.6"/>
  <line x1="400" y1="438" x2="400" y2="500" stroke="#d8d8d8" stroke-width="1" opacity="0.6"/>
  <line x1="480" y1="438" x2="480" y2="500" stroke="#d8d8d8" stroke-width="1" opacity="0.6"/>
  <line x1="560" y1="438" x2="560" y2="500" stroke="#d8d8d8" stroke-width="1" opacity="0.6"/>
  <line x1="640" y1="438" x2="640" y2="500" stroke="#d8d8d8" stroke-width="1" opacity="0.6"/>
  <line x1="720" y1="438" x2="720" y2="500" stroke="#d8d8d8" stroke-width="1" opacity="0.55"/>
  <!-- Floor reflection glow from spotlights -->
  <ellipse cx="160" cy="440" rx="40" ry="12" fill="#fffef0" opacity="0.5" filter="url(#ret-soft)"/>
  <ellipse cx="400" cy="440" rx="45" ry="14" fill="#fffef0" opacity="0.5" filter="url(#ret-soft)"/>
  <ellipse cx="640" cy="440" rx="40" ry="12" fill="#fffef0" opacity="0.5" filter="url(#ret-soft)"/>
  <!-- Marble veining (subtle gray streaks) -->
  <line x1="30" y1="440" x2="90" y2="476" stroke="#d0d0d0" stroke-width="0.6" opacity="0.45"/>
  <line x1="280" y1="440" x2="360" y2="476" stroke="#d0d0d0" stroke-width="0.6" opacity="0.4"/>
  <line x1="550" y1="440" x2="630" y2="476" stroke="#d0d0d0" stroke-width="0.6" opacity="0.42"/>
  <line x1="710" y1="440" x2="780" y2="476" stroke="#d0d0d0" stroke-width="0.6" opacity="0.38"/>

  <!-- PRODUCT DISPLAY PEDESTALS: 3 at different heights -->
  <!-- Left Pedestal (medium height) -->
  <!-- Pedestal shadow -->
  <ellipse cx="160" cy="440" rx="42" ry="10" fill="#c0c0c0" opacity="0.4" filter="url(#ret-soft)"/>
  <!-- Pedestal body -->
  <rect x="122" y="290" width="76" height="152" rx="4" fill="#f0f0f0"/>
  <rect x="122" y="290" width="76" height="5" rx="2" fill="#e0e0e0"/>
  <rect x="122" y="437" width="76" height="7" rx="2" fill="#e0e0e0"/>
  <!-- Pedestal side depth -->
  <rect x="194" y="295" width="6" height="147" fill="#d8d8d8" opacity="0.6"/>
  <!-- Product on pedestal: Zakey wall panel -->
  <rect x="136" y="258" width="48" height="35" rx="3" fill="#f5f5f5" stroke="#d5d5d5" stroke-width="1"/>
  <!-- Panel face -->
  <rect x="140" y="261" width="40" height="29" rx="2" fill="#0d1020"/>
  <!-- Panel screen glow cyan -->
  <rect x="142" y="263" width="36" height="16" rx="1" fill="#050d20"/>
  <line x1="144" y1="267" x2="176" y2="267" stroke="#00e5ff" stroke-width="0.9" opacity="0.8"/>
  <line x1="144" y1="272" x2="174" y2="272" stroke="#00e5ff" stroke-width="0.7" opacity="0.65"/>
  <line x1="144" y1="277" x2="170" y2="277" stroke="#00e5ff" stroke-width="0.7" opacity="0.55"/>
  <!-- Panel LED button row -->
  <circle cx="148" cy="284" r="2.5" fill="#00e5ff" opacity="0.7"/>
  <circle cx="155" cy="284" r="2.5" fill="#00ff88" opacity="0.65"/>
  <circle cx="162" cy="284" r="2.5" fill="#ffd080" opacity="0.65"/>
  <!-- Panel glow on pedestal -->
  <ellipse cx="160" cy="295" rx="30" ry="15" fill="#00e5ff" opacity="0.08" filter="url(#ret-soft)"/>
  <!-- Spotlight cone on panel product -->
  <ellipse cx="160" cy="260" rx="28" ry="8" fill="#fffef0" opacity="0.4" filter="url(#ret-soft)"/>
  <!-- Product label card on pedestal -->
  <rect x="135" y="358" width="50" height="22" rx="1" fill="#ffffff" stroke="#e0e0e0" stroke-width="0.8"/>
  <rect x="137" y="361" width="30" height="3" rx="1" fill="#0d1535" opacity="0.6"/>
  <rect x="137" y="367" width="22" height="2" rx="1" fill="#555555" opacity="0.4"/>
  <rect x="137" y="372" width="26" height="2" rx="1" fill="#555555" opacity="0.35"/>

  <!-- Center Pedestal (tallest) -->
  <ellipse cx="400" cy="440" rx="46" ry="11" fill="#c0c0c0" opacity="0.4" filter="url(#ret-soft)"/>
  <rect x="360" y="260" width="80" height="182" rx="4" fill="#efefef"/>
  <rect x="360" y="260" width="80" height="5" rx="2" fill="#e0e0e0"/>
  <rect x="360" y="437" width="80" height="7" rx="2" fill="#e0e0e0"/>
  <rect x="436" y="265" width="6" height="177" fill="#d5d5d5" opacity="0.6"/>
  <!-- Product on center pedestal: smart switch plate -->
  <rect x="372" y="226" width="56" height="38" rx="4" fill="#f8f8f8" stroke="#d0d0d0" stroke-width="1.2"/>
  <!-- Switch face: 4-button grid -->
  <rect x="376" y="230" width="22" height="14" rx="2" fill="#e0e0e0" stroke="#c0c0c0" stroke-width="0.7"/>
  <rect x="401" y="230" width="22" height="14" rx="2" fill="#e0e0e0" stroke="#c0c0c0" stroke-width="0.7"/>
  <rect x="376" y="247" width="22" height="14" rx="2" fill="#e0e0e0" stroke="#c0c0c0" stroke-width="0.7"/>
  <rect x="401" y="247" width="22" height="14" rx="2" fill="#1a1a2a" stroke="#c0c0c0" stroke-width="0.7"/>
  <!-- Active button glow -->
  <rect x="401" y="247" width="22" height="14" rx="2" fill="#00e5ff" opacity="0.4"/>
  <circle cx="412" cy="254" r="3" fill="#00e5ff" opacity="0.8"/>
  <!-- Spotlight on center product -->
  <ellipse cx="400" cy="235" rx="32" ry="9" fill="#fffef0" opacity="0.45" filter="url(#ret-soft)"/>
  <!-- Product label center -->
  <rect x="372" y="370" width="56" height="24" rx="1" fill="#ffffff" stroke="#e0e0e0" stroke-width="0.8"/>
  <rect x="375" y="374" width="35" height="3" rx="1" fill="#0d1535" opacity="0.65"/>
  <rect x="375" y="380" width="26" height="2" rx="1" fill="#555" opacity="0.4"/>
  <rect x="375" y="385" width="30" height="2" rx="1" fill="#555" opacity="0.35"/>

  <!-- Right Pedestal (shorter) -->
  <ellipse cx="640" cy="440" rx="42" ry="10" fill="#c0c0c0" opacity="0.38" filter="url(#ret-soft)"/>
  <rect x="600" y="310" width="80" height="132" rx="4" fill="#f2f2f2"/>
  <rect x="600" y="310" width="80" height="5" rx="2" fill="#e0e0e0"/>
  <rect x="600" y="437" width="80" height="7" rx="2" fill="#e0e0e0"/>
  <rect x="676" y="315" width="6" height="127" fill="#d5d5d5" opacity="0.6"/>
  <!-- Product on right pedestal: smart door lock -->
  <rect x="614" y="272" width="52" height="42" rx="5" fill="#2a2a3a"/>
  <rect x="618" y="276" width="44" height="34" rx="4" fill="#1e1e2e"/>
  <!-- Lock keypad -->
  <rect x="620" y="278" width="40" height="20" rx="2" fill="#151520"/>
  <!-- Keypad dot grid -->
  <circle cx="627" cy="284" r="2" fill="#555580" opacity="0.8"/>
  <circle cx="635" cy="284" r="2" fill="#555580" opacity="0.8"/>
  <circle cx="643" cy="284" r="2" fill="#555580" opacity="0.8"/>
  <circle cx="651" cy="284" r="2" fill="#555580" opacity="0.8"/>
  <circle cx="627" cy="292" r="2" fill="#555580" opacity="0.75"/>
  <circle cx="635" cy="292" r="2" fill="#555580" opacity="0.75"/>
  <circle cx="643" cy="292" r="2" fill="#00e5ff" opacity="0.9"/>
  <circle cx="651" cy="292" r="2" fill="#555580" opacity="0.75"/>
  <!-- Status LED lock -->
  <circle cx="640" cy="302" r="3" fill="#00ff88" opacity="0.9"/>
  <!-- Lock product label -->
  <rect x="612" y="377" width="56" height="22" rx="1" fill="#ffffff" stroke="#e0e0e0" stroke-width="0.8"/>
  <rect x="615" y="381" width="35" height="3" rx="1" fill="#0d1535" opacity="0.65"/>
  <rect x="615" y="387" width="26" height="2" rx="1" fill="#555" opacity="0.4"/>
  <!-- Spotlight on right product -->
  <ellipse cx="640" cy="278" rx="28" ry="8" fill="#fffef0" opacity="0.42" filter="url(#ret-soft)"/>

  <!-- LEFT WALL: product shelving (white wall-mounted shelves) -->
  <!-- Left wall back panel -->
  <rect x="0" y="92" width="110" height="345" fill="#f5f5f5"/>
  <!-- Wall shelves -->
  <!-- Shelf 1 (top) -->
  <rect x="5" y="115" width="100" height="8" rx="1" fill="#e0e0e0"/>
  <!-- Products on shelf 1 -->
  <rect x="10" y="92" width="20" height="24" rx="2" fill="#e8e8e8"/>
  <rect x="34" y="96" width="18" height="20" rx="2" fill="#dde8f0"/>
  <rect x="56" y="98" width="15" height="18" rx="2" fill="#e8e8e8"/>
  <rect x="75" y="94" width="22" height="22" rx="2" fill="#e0eae8"/>
  <!-- Shelf 2 (middle) -->
  <rect x="5" y="185" width="100" height="8" rx="1" fill="#e0e0e0"/>
  <rect x="10" y="162" width="18" height="24" rx="2" fill="#e8e4e0"/>
  <rect x="32" y="166" width="22" height="20" rx="2" fill="#d8e4e8"/>
  <rect x="58" y="164" width="16" height="22" rx="2" fill="#e8e8e0"/>
  <rect x="78" y="163" width="20" height="23" rx="2" fill="#dde8e4"/>
  <!-- Shelf 3 (lower) -->
  <rect x="5" y="255" width="100" height="8" rx="1" fill="#e0e0e0"/>
  <rect x="10" y="232" width="22" height="24" rx="2" fill="#e8e8e8"/>
  <rect x="36" y="236" width="18" height="20" rx="2" fill="#dde8e8"/>
  <rect x="58" y="234" width="16" height="22" rx="2" fill="#e8e4e0"/>
  <rect x="78" y="233" width="20" height="23" rx="2" fill="#e0e8e4"/>
  <!-- Shelf 4 (lowest) -->
  <rect x="5" y="320" width="100" height="8" rx="1" fill="#e0e0e0"/>
  <rect x="10" y="298" width="20" height="23" rx="2" fill="#e8e8e0"/>
  <rect x="34" y="300" width="22" height="21" rx="2" fill="#dde4e8"/>
  <rect x="60" y="299" width="18" height="22" rx="2" fill="#e8e8e8"/>
  <rect x="82" y="298" width="18" height="23" rx="2" fill="#e0e8e4"/>

  <!-- INTERACTIVE DEMO STATION: right side, large touchscreen -->
  <!-- Screen mount bracket -->
  <rect x="720" y="178" width="60" height="200" rx="4" fill="#e8e8e8"/>
  <rect x="720" y="178" width="60" height="5" rx="2" fill="#d8d8d8"/>
  <!-- Large mounted touchscreen -->
  <rect x="715" y="152" width="75" height="170" rx="5" fill="#1a1a2a"/>
  <rect x="719" y="156" width="67" height="162" rx="4" fill="#050d1a"/>
  <!-- Interactive screen content -->
  <rect x="721" y="158" width="63" height="100" rx="2" fill="#080d1a"/>
  <!-- Zakey logo on demo screen -->
  <text x="752" y="185" font-family="sans-serif" font-size="9" fill="#00e5ff" text-anchor="middle" font-weight="bold" opacity="0.9">ZAKEY</text>
  <rect x="730" y="188" width="44" height="1.5" rx="0.5" fill="#00e5ff" opacity="0.7"/>
  <!-- Demo UI elements on screen -->
  <rect x="723" y="193" width="28" height="12" rx="2" fill="#0d1535" opacity="0.9"/>
  <rect x="724" y="194" width="26" height="10" rx="1" fill="#0a1020"/>
  <!-- Brightness slider -->
  <rect x="724" y="197" width="24" height="2" rx="1" fill="#333355"/>
  <rect x="724" y="197" width="16" height="2" rx="1" fill="#00e5ff" opacity="0.8"/>
  <circle cx="740" cy="198" r="3" fill="#00e5ff" opacity="0.9"/>
  <!-- Temperature display -->
  <text x="752" y="207" font-family="sans-serif" font-size="7" fill="#00e5ff" text-anchor="middle" opacity="0.8">22°C</text>
  <!-- Scene buttons on demo screen -->
  <rect x="723" y="215" width="22" height="10" rx="2" fill="#1a2040"/>
  <rect x="748" y="215" width="30" height="10" rx="2" fill="#1a2040"/>
  <text x="734" y="222" font-family="sans-serif" font-size="5" fill="#8090ff" text-anchor="middle" opacity="0.7">HOME</text>
  <text x="763" y="222" font-family="sans-serif" font-size="5" fill="#8090ff" text-anchor="middle" opacity="0.7">AWAY</text>
  <!-- Customer hand silhouette near screen -->
  <!-- Stylized hand outline -->
  <rect x="774" y="205" width="8" height="25" rx="4" fill="#d4b898" opacity="0.75"/>
  <rect x="765" y="208" width="6" height="18" rx="3" fill="#d4b898" opacity="0.7"/>
  <rect x="762" y="213" width="5" height="14" rx="2.5" fill="#d4b898" opacity="0.65"/>
  <rect x="777" y="215" width="6" height="14" rx="3" fill="#d4b898" opacity="0.65"/>
  <rect x="782" y="219" width="5" height="12" rx="2.5" fill="#d4b898" opacity="0.6"/>
  <!-- Touch interaction glow -->
  <ellipse cx="769" cy="215" rx="12" ry="8" fill="#00e5ff" opacity="0.12" filter="url(#ret-soft)"/>
  <!-- Screen ambient glow on right wall -->
  <ellipse cx="752" cy="280" rx="50" ry="60" fill="#0088ff" opacity="0.05" filter="url(#ret-blur)"/>

  <!-- CEILING CAMERA DOME on track -->
  <ellipse cx="400" cy="18" rx="12" ry="8" fill="#2a2a2a"/>
  <ellipse cx="400" cy="18" rx="9" ry="6" fill="#1a1a1a"/>
  <circle cx="400" cy="18" r="4" fill="#080818"/>
  <circle cx="399" cy="17" r="2" fill="#00e5ff" opacity="0.55"/>
  <!-- Customer analytics sensor (center ceiling) -->
  <rect x="370" y="8" width="30" height="10" rx="2" fill="#3a3a3a"/>
  <rect x="373" y="10" width="24" height="6" rx="1" fill="#2a2a2a"/>
  <!-- Sensor LED -->
  <circle cx="392" cy="13" r="2" fill="#00e5ff" opacity="0.85"/>
  <!-- Status LEDs on ceiling track -->
  <circle cx="100" cy="28" r="1.5" fill="#00ff88" opacity="0.7"/>
  <circle cx="340" cy="28" r="1.5" fill="#00ff88" opacity="0.7"/>
  <circle cx="580" cy="28" r="1.5" fill="#00ff88" opacity="0.7"/>
  <circle cx="700" cy="28" r="1.5" fill="#00e5ff" opacity="0.8"/>

  <!-- Ambient LED strips (along wall/ceiling junction - warm white) -->
  <rect x="0" y="90" width="800" height="4" fill="#fff8d0" opacity="0.6"/>
  <rect x="0" y="85" width="800" height="10" fill="#fff8d0" opacity="0.2" filter="url(#ret-soft)"/>

  <!-- Floor baseboard -->
  <rect x="0" y="432" width="800" height="10" fill="#e0e0e0" opacity="0.8"/>

</svg>
