<svg xmlns="http://www.w3.org/2000/svg" viewBox="0 0 1200 900">
  <defs>
    <linearGradient id="a" x1="0%" y1="0%" x2="100%" y2="100%">
      <stop offset="0%" stop-color="#060810"/>
      <stop offset="100%" stop-color="#0d0b18"/>
    </linearGradient>
    <radialGradient id="b" cx="40%" cy="55%" r="50%">
      <stop offset="0%" stop-color="#f59e0b" stop-opacity=".12"/>
      <stop offset="100%" stop-color="#f59e0b" stop-opacity="0"/>
    </radialGradient>
    <radialGradient id="c" cx="50%" cy="50%" r="50%">
      <stop offset="0%" stop-color="#fde68a" stop-opacity=".5"/>
      <stop offset="100%" stop-color="#fde68a" stop-opacity="0"/>
    </radialGradient>
    <linearGradient id="d" x1="0%" y1="0%" x2="100%" y2="0%">
      <stop offset="0%" stop-color="#22d3ee"/>
      <stop offset="100%" stop-color="#f59e0b"/>
    </linearGradient>
  </defs>
  <rect width="1200" height="900" fill="url(#a)"/>
  <rect width="1200" height="900" fill="url(#b)"/>
  <!-- Floor -->
  <rect x="0" y="680" width="1200" height="220" fill="#0d0b18" opacity=".6"/>
  <line x1="0" y1="680" x2="1200" y2="680" stroke="#22d3ee" stroke-opacity=".07" stroke-width="1"/>
  <!-- Window -->
  <rect x="90" y="160" width="190" height="290" rx="4" fill="#0f1a2e" stroke="#22d3ee" stroke-opacity=".12" stroke-width="1"/>
  <line x1="185" y1="160" x2="185" y2="450" stroke="#22d3ee" stroke-opacity=".08" stroke-width="1"/>
  <line x1="90" y1="305" x2="280" y2="305" stroke="#22d3ee" stroke-opacity=".08" stroke-width="1"/>
  <!-- Sofa -->
  <rect x="310" y="555" width="470" height="120" rx="12" fill="#1e1a2e" stroke="#2d2a45" stroke-width="1"/>
  <rect x="310" y="518" width="470" height="50" rx="8" fill="#252040" stroke="#2d2a45" stroke-width="1"/>
  <rect x="305" y="508" width="28" height="165" rx="7" fill="#252040"/>
  <rect x="752" y="508" width="28" height="165" rx="7" fill="#252040"/>
  <rect x="335" y="528" width="125" height="35" rx="5" fill="#2a2545" opacity=".8"/>
  <rect x="480" y="528" width="125" height="35" rx="5" fill="#2a2545" opacity=".8"/>
  <rect x="625" y="528" width="125" height="35" rx="5" fill="#2a2545" opacity=".8"/>
  <!-- Floor lamp -->
  <rect x="868" y="300" width="6" height="380" rx="3" fill="#2a2240"/>
  <ellipse cx="871" cy="296" rx="38" ry="16" fill="#1e1a2e" stroke="#f59e0b" stroke-opacity=".4" stroke-width="1"/>
  <circle cx="871" cy="296" r="32" fill="url(#c)"/>
  <!-- Coffee table -->
  <rect x="425" y="652" width="240" height="28" rx="6" fill="#141020" stroke="#22d3ee" stroke-opacity=".1" stroke-width="1"/>
  <!-- Emergency button on table -->
  <circle cx="545" cy="640" r="12" fill="#22d3ee" opacity=".18"/>
  <circle cx="545" cy="640" r="6" fill="#22d3ee" opacity=".7"/>
  <circle cx="545" cy="640" r="14" fill="none" stroke="#22d3ee" stroke-width="1" stroke-opacity=".3"/>
  <circle cx="545" cy="640" r="20" fill="none" stroke="#22d3ee" stroke-width=".5" stroke-opacity=".15"/>
  <!-- Smart panel -->
  <rect x="218" y="370" width="52" height="86" rx="6" fill="#161224" stroke="#22d3ee" stroke-opacity=".3" stroke-width="1"/>
  <rect x="226" y="380" width="36" height="20" rx="3" fill="#0d1a2e"/>
  <rect x="226" y="418" width="14" height="5" rx="2" fill="#22d3ee" opacity=".5"/>
  <rect x="248" y="418" width="14" height="5" rx="2" fill="#f59e0b" opacity=".5"/>
  <rect x="226" y="432" width="36" height="5" rx="2" fill="#2a2240" opacity=".5"/>
  <!-- Sensors -->
  <circle cx="340" cy="78" r="8" fill="#1e1a2e" stroke="#22d3ee" stroke-opacity=".5" stroke-width="1"/>
  <circle cx="340" cy="78" r="3" fill="#22d3ee" opacity=".8"/>
  <line x1="340" y1="86" x2="545" y2="626" stroke="#22d3ee" stroke-opacity=".05" stroke-width="1" stroke-dasharray="4 6"/>
  <circle cx="710" cy="68" r="8" fill="#1e1a2e" stroke="#f59e0b" stroke-opacity=".5" stroke-width="1"/>
  <circle cx="710" cy="68" r="3" fill="#f59e0b" opacity=".8"/>
  <circle cx="980" cy="72" r="8" fill="#1e1a2e" stroke="#22d3ee" stroke-opacity=".5" stroke-width="1"/>
  <circle cx="980" cy="72" r="3" fill="#22d3ee" opacity=".8"/>
  <!-- Accent bar -->
  <rect x="0" y="858" width="1200" height="3" fill="url(#d)" opacity=".5"/>
  <text x="600" y="840" font-family="system-ui,sans-serif" font-size="13" fill="#fff" fill-opacity=".15" text-anchor="middle" letter-spacing="5">ZAKEY</text>
</svg>
