<svg xmlns="http://www.w3.org/2000/svg" viewBox="0 0 1200 900">
  <defs>
    <linearGradient id="bg" x1="0%" y1="0%" x2="100%" y2="100%">
      <stop offset="0%" stop-color="#05070d"/>
      <stop offset="100%" stop-color="#0c0f17"/>
    </linearGradient>
    <radialGradient id="glow" cx="50%" cy="45%" r="60%">
      <stop offset="0%" stop-color="#22d3ee" stop-opacity="0.07"/>
      <stop offset="100%" stop-color="#22d3ee" stop-opacity="0"/>
    </radialGradient>
  </defs>
  <rect width="1200" height="900" fill="url(#bg)"/>
  <rect width="1200" height="900" fill="url(#glow)"/>
  <!-- Compound gate / perimeter wall -->
  <rect x="120" y="640" width="960" height="30" fill="#0c1a20" rx="2"/>
  <!-- Gate towers -->
  <rect x="530" y="560" width="60" height="80" fill="#0c1a20" rx="2"/>
  <rect x="610" y="560" width="60" height="80" fill="#0c1a20" rx="2"/>
  <!-- Gate bar -->
  <rect x="530" y="595" width="140" height="6" fill="#22d3ee" fill-opacity="0.25" rx="3"/>
  <!-- Building A — large villa left -->
  <rect x="160" y="360" width="240" height="280" fill="#0c1a20" rx="4"/>
  <polygon points="140,360 280,220 420,360" fill="#091318"/>
  <rect x="190" y="420" width="55" height="45" fill="#22d3ee" fill-opacity="0.12" rx="2"/>
  <rect x="265" y="420" width="55" height="45" fill="#22d3ee" fill-opacity="0.09" rx="2"/>
  <rect x="340" y="420" width="45" height="45" fill="#22d3ee" fill-opacity="0.11" rx="2"/>
  <rect x="190" y="490" width="55" height="45" fill="#22d3ee" fill-opacity="0.09" rx="2"/>
  <rect x="265" y="490" width="55" height="45" fill="#22d3ee" fill-opacity="0.14" rx="2"/>
  <rect x="340" y="490" width="45" height="45" fill="#22d3ee" fill-opacity="0.07" rx="2"/>
  <rect x="240" y="560" width="80" height="80" fill="#091318" rx="2"/>

  <!-- Building B — tower centre-left -->
  <rect x="440" y="280" width="140" height="360" fill="#0d1520" rx="3"/>
  <rect x="455" y="300" width="40" height="35" fill="#22d3ee" fill-opacity="0.13" rx="1"/>
  <rect x="510" y="300" width="40" height="35" fill="#22d3ee" fill-opacity="0.08" rx="1"/>
  <rect x="455" y="355" width="40" height="35" fill="#22d3ee" fill-opacity="0.10" rx="1"/>
  <rect x="510" y="355" width="40" height="35" fill="#22d3ee" fill-opacity="0.15" rx="1"/>
  <rect x="455" y="410" width="40" height="35" fill="#22d3ee" fill-opacity="0.08" rx="1"/>
  <rect x="510" y="410" width="40" height="35" fill="#22d3ee" fill-opacity="0.12" rx="1"/>
  <rect x="455" y="465" width="40" height="35" fill="#22d3ee" fill-opacity="0.11" rx="1"/>
  <rect x="510" y="465" width="40" height="35" fill="#22d3ee" fill-opacity="0.09" rx="1"/>
  <rect x="455" y="520" width="40" height="35" fill="#22d3ee" fill-opacity="0.14" rx="1"/>
  <rect x="510" y="520" width="40" height="35" fill="#22d3ee" fill-opacity="0.07" rx="1"/>
  <rect x="475" y="590" width="60" height="50" fill="#091318" rx="1"/>

  <!-- Building C — tower centre-right -->
  <rect x="620" y="310" width="140" height="330" fill="#0d1520" rx="3"/>
  <rect x="635" y="330" width="40" height="35" fill="#22d3ee" fill-opacity="0.09" rx="1"/>
  <rect x="690" y="330" width="40" height="35" fill="#22d3ee" fill-opacity="0.14" rx="1"/>
  <rect x="635" y="385" width="40" height="35" fill="#22d3ee" fill-opacity="0.15" rx="1"/>
  <rect x="690" y="385" width="40" height="35" fill="#22d3ee" fill-opacity="0.08" rx="1"/>
  <rect x="635" y="440" width="40" height="35" fill="#22d3ee" fill-opacity="0.10" rx="1"/>
  <rect x="690" y="440" width="40" height="35" fill="#22d3ee" fill-opacity="0.13" rx="1"/>
  <rect x="635" y="495" width="40" height="35" fill="#22d3ee" fill-opacity="0.12" rx="1"/>
  <rect x="690" y="495" width="40" height="35" fill="#22d3ee" fill-opacity="0.07" rx="1"/>
  <rect x="645" y="560" width="60" height="40" fill="#091318" rx="1"/>

  <!-- Building D — villa right -->
  <rect x="800" y="380" width="240" height="260" fill="#0c1a20" rx="4"/>
  <polygon points="780,380 920,250 1060,380" fill="#091318"/>
  <rect x="830" y="430" width="55" height="45" fill="#22d3ee" fill-opacity="0.11" rx="2"/>
  <rect x="905" y="430" width="55" height="45" fill="#22d3ee" fill-opacity="0.08" rx="2"/>
  <rect x="980" y="430" width="45" height="45" fill="#22d3ee" fill-opacity="0.14" rx="2"/>
  <rect x="830" y="500" width="55" height="45" fill="#22d3ee" fill-opacity="0.09" rx="2"/>
  <rect x="905" y="500" width="55" height="45" fill="#22d3ee" fill-opacity="0.13" rx="2"/>
  <rect x="980" y="500" width="45" height="45" fill="#22d3ee" fill-opacity="0.07" rx="2"/>
  <rect x="875" y="558" width="80" height="82" fill="#091318" rx="2"/>

  <!-- Mesh bridge node — centre hub icon -->
  <circle cx="600" cy="510" r="20" fill="none" stroke="#22d3ee" stroke-opacity="0.30" stroke-width="1.5"/>
  <circle cx="600" cy="510" r="6" fill="#22d3ee" fill-opacity="0.35"/>
  <!-- Connection lines to buildings -->
  <line x1="580" y1="510" x2="400" y2="480" stroke="#22d3ee" stroke-opacity="0.10" stroke-width="1" stroke-dasharray="4,4"/>
  <line x1="620" y1="510" x2="800" y2="480" stroke="#22d3ee" stroke-opacity="0.10" stroke-width="1" stroke-dasharray="4,4"/>
  <line x1="600" y1="490" x2="510" y2="420" stroke="#22d3ee" stroke-opacity="0.10" stroke-width="1" stroke-dasharray="4,4"/>
  <line x1="600" y1="490" x2="690" y2="420" stroke="#22d3ee" stroke-opacity="0.10" stroke-width="1" stroke-dasharray="4,4"/>

  <!-- Ground -->
  <rect x="0" y="668" width="1200" height="2" fill="#22d3ee" fill-opacity="0.05"/>
  <path d="M0 800 Q400 770 700 785 Q950 800 1200 770 L1200 900 L0 900Z" fill="#05070d" fill-opacity="0.75"/>
  <!-- Wordmark -->
  <text x="600" y="840" font-family="Manrope,Inter,system-ui,sans-serif" font-size="22" font-weight="700"
        fill="#22d3ee" fill-opacity="0.45" text-anchor="middle" letter-spacing="8">ZAKEY</text>
  <text x="600" y="866" font-family="Manrope,Inter,system-ui,sans-serif" font-size="13" font-weight="400"
        fill="#9aa3b2" fill-opacity="0.40" text-anchor="middle" letter-spacing="3">SMART COMPOUND</text>
</svg>
