<svg xmlns="http://www.w3.org/2000/svg" viewBox="0 0 1200 900">
  <defs>
    <linearGradient id="bg" x1="0%" y1="0%" x2="100%" y2="100%">
      <stop offset="0%" stop-color="#05070d"/>
      <stop offset="100%" stop-color="#0c0f17"/>
    </linearGradient>
    <radialGradient id="glow" cx="60%" cy="30%" r="50%">
      <stop offset="0%" stop-color="#22d3ee" stop-opacity="0.10"/>
      <stop offset="100%" stop-color="#22d3ee" stop-opacity="0"/>
    </radialGradient>
  </defs>
  <rect width="1200" height="900" fill="url(#bg)"/>
  <rect width="1200" height="900" fill="url(#glow)"/>
  <!-- Office tower — glass curtain wall style -->
  <rect x="300" y="160" width="600" height="510" fill="#0d1820" rx="4"/>
  <!-- Vertical dividers (curtain wall) -->
  <rect x="450" y="160" width="4" height="510" fill="#22d3ee" fill-opacity="0.05"/>
  <rect x="600" y="160" width="4" height="510" fill="#22d3ee" fill-opacity="0.05"/>
  <rect x="750" y="160" width="4" height="510" fill="#22d3ee" fill-opacity="0.05"/>
  <!-- Horizontal floor lines -->
  <rect x="300" y="240" width="600" height="2" fill="#22d3ee" fill-opacity="0.06"/>
  <rect x="300" y="320" width="600" height="2" fill="#22d3ee" fill-opacity="0.06"/>
  <rect x="300" y="400" width="600" height="2" fill="#22d3ee" fill-opacity="0.06"/>
  <rect x="300" y="480" width="600" height="2" fill="#22d3ee" fill-opacity="0.06"/>
  <rect x="300" y="560" width="600" height="2" fill="#22d3ee" fill-opacity="0.06"/>
  <!-- Window fill per bay -->
  <rect x="304" y="164" width="142" height="74" fill="#22d3ee" fill-opacity="0.09" rx="1"/>
  <rect x="454" y="164" width="142" height="74" fill="#22d3ee" fill-opacity="0.13" rx="1"/>
  <rect x="604" y="164" width="142" height="74" fill="#22d3ee" fill-opacity="0.08" rx="1"/>
  <rect x="754" y="164" width="142" height="74" fill="#22d3ee" fill-opacity="0.15" rx="1"/>

  <rect x="304" y="244" width="142" height="74" fill="#22d3ee" fill-opacity="0.13" rx="1"/>
  <rect x="454" y="244" width="142" height="74" fill="#22d3ee" fill-opacity="0.07" rx="1"/>
  <rect x="604" y="244" width="142" height="74" fill="#22d3ee" fill-opacity="0.16" rx="1"/>
  <rect x="754" y="244" width="142" height="74" fill="#22d3ee" fill-opacity="0.09" rx="1"/>

  <rect x="304" y="324" width="142" height="74" fill="#22d3ee" fill-opacity="0.08" rx="1"/>
  <rect x="454" y="324" width="142" height="74" fill="#22d3ee" fill-opacity="0.14" rx="1"/>
  <rect x="604" y="324" width="142" height="74" fill="#22d3ee" fill-opacity="0.10" rx="1"/>
  <rect x="754" y="324" width="142" height="74" fill="#22d3ee" fill-opacity="0.12" rx="1"/>

  <rect x="304" y="404" width="142" height="74" fill="#22d3ee" fill-opacity="0.12" rx="1"/>
  <rect x="454" y="404" width="142" height="74" fill="#22d3ee" fill-opacity="0.09" rx="1"/>
  <rect x="604" y="404" width="142" height="74" fill="#22d3ee" fill-opacity="0.13" rx="1"/>
  <rect x="754" y="404" width="142" height="74" fill="#22d3ee" fill-opacity="0.08" rx="1"/>

  <rect x="304" y="484" width="142" height="74" fill="#22d3ee" fill-opacity="0.09" rx="1"/>
  <rect x="454" y="484" width="142" height="74" fill="#22d3ee" fill-opacity="0.15" rx="1"/>
  <rect x="604" y="484" width="142" height="74" fill="#22d3ee" fill-opacity="0.07" rx="1"/>
  <rect x="754" y="484" width="142" height="74" fill="#22d3ee" fill-opacity="0.13" rx="1"/>

  <!-- Lobby -->
  <rect x="470" y="600" width="260" height="70" fill="#22d3ee" fill-opacity="0.06" rx="2"/>
  <!-- Scene control panel on column -->
  <rect x="310" y="360" width="32" height="55" fill="#22d3ee" fill-opacity="0.18" rx="4"/>
  <circle cx="326" cy="378" r="8" fill="#22d3ee" fill-opacity="0.40"/>
  <rect x="314" y="390" width="24" height="2" fill="#22d3ee" fill-opacity="0.30"/>
  <rect x="314" y="396" width="18" height="2" fill="#22d3ee" fill-opacity="0.20"/>
  <!-- Ambient strip -->
  <rect x="300" y="668" width="600" height="2" fill="#22d3ee" fill-opacity="0.20"/>
  <!-- Ground -->
  <rect x="0" y="670" width="1200" height="2" fill="#22d3ee" fill-opacity="0.05"/>
  <path d="M0 790 Q300 760 600 775 Q900 790 1200 760 L1200 900 L0 900Z" fill="#05070d" fill-opacity="0.75"/>
  <!-- Wordmark -->
  <text x="600" y="840" font-family="Manrope,Inter,system-ui,sans-serif" font-size="22" font-weight="700"
        fill="#22d3ee" fill-opacity="0.45" text-anchor="middle" letter-spacing="8">ZAKEY</text>
  <text x="600" y="866" font-family="Manrope,Inter,system-ui,sans-serif" font-size="13" font-weight="400"
        fill="#9aa3b2" fill-opacity="0.40" text-anchor="middle" letter-spacing="3">SMART OFFICE</text>
</svg>
