<svg xmlns="http://www.w3.org/2000/svg" viewBox="0 0 800 500" width="800" height="500">
  <title>Zakey Gaming Room — Ultimate RGB Smart Setup</title>
  <defs>
    <!-- Room background: deep purple-black -->
    <linearGradient id="gm-bg" x1="0%" y1="0%" x2="100%" y2="100%">
      <stop offset="0%" stop-color="#0d0816"/>
      <stop offset="100%" stop-color="#0a0612"/>
    </linearGradient>
    <!-- RGB rainbow gradient for LED strips -->
    <linearGradient id="gm-rgb" x1="0%" y1="0%" x2="100%" y2="0%">
      <stop offset="0%" stop-color="#ff0040"/>
      <stop offset="16%" stop-color="#ff6600"/>
      <stop offset="32%" stop-color="#ffff00"/>
      <stop offset="48%" stop-color="#00ff88"/>
      <stop offset="64%" stop-color="#0088ff"/>
      <stop offset="80%" stop-color="#8800ff"/>
      <stop offset="100%" stop-color="#ff0080"/>
    </linearGradient>
    <!-- RGB floor spill gradient -->
    <linearGradient id="gm-floor-spill" x1="0%" y1="0%" x2="100%" y2="0%">
      <stop offset="0%" stop-color="#ff0040" stop-opacity="0.45"/>
      <stop offset="20%" stop-color="#ff6600" stop-opacity="0.4"/>
      <stop offset="40%" stop-color="#8800ff" stop-opacity="0.38"/>
      <stop offset="60%" stop-color="#0088ff" stop-opacity="0.35"/>
      <stop offset="80%" stop-color="#00ff88" stop-opacity="0.3"/>
      <stop offset="100%" stop-color="#ff0040" stop-opacity="0"/>
    </linearGradient>
    <!-- RGB ceiling spill -->
    <linearGradient id="gm-ceil-spill" x1="0%" y1="0%" x2="100%" y2="0%">
      <stop offset="0%" stop-color="#ff0040" stop-opacity="0.3"/>
      <stop offset="25%" stop-color="#8800ff" stop-opacity="0.28"/>
      <stop offset="50%" stop-color="#0088ff" stop-opacity="0.25"/>
      <stop offset="75%" stop-color="#00ff88" stop-opacity="0.22"/>
      <stop offset="100%" stop-color="#ff0080" stop-opacity="0.2"/>
    </linearGradient>
    <!-- Keyboard RGB gradient -->
    <linearGradient id="gm-kb" x1="0%" y1="0%" x2="100%" y2="0%">
      <stop offset="0%" stop-color="#ff0040"/>
      <stop offset="18%" stop-color="#ff6600"/>
      <stop offset="36%" stop-color="#ffff00"/>
      <stop offset="54%" stop-color="#00ff88"/>
      <stop offset="72%" stop-color="#0088ff"/>
      <stop offset="90%" stop-color="#8800ff"/>
      <stop offset="100%" stop-color="#ff0080"/>
    </linearGradient>
    <!-- Desk surface screen glow -->
    <radialGradient id="gm-midglow" cx="50%" cy="0%" r="100%">
      <stop offset="0%" stop-color="#00d4ff" stop-opacity="0.25"/>
      <stop offset="100%" stop-color="#00d4ff" stop-opacity="0"/>
    </radialGradient>
    <!-- Red/orange screen glow middle monitor -->
    <radialGradient id="gm-screenglow" cx="50%" cy="100%" r="100%">
      <stop offset="0%" stop-color="#ff6030" stop-opacity="0.3"/>
      <stop offset="100%" stop-color="#ff6030" stop-opacity="0"/>
    </radialGradient>
    <!-- Purple HUD glow -->
    <radialGradient id="gm-hudglow" cx="50%" cy="100%" r="80%">
      <stop offset="0%" stop-color="#8800ff" stop-opacity="0.25"/>
      <stop offset="100%" stop-color="#8800ff" stop-opacity="0"/>
    </radialGradient>
    <!-- Cyan panel glow -->
    <radialGradient id="gm-cyanglow" cx="50%" cy="50%" r="50%">
      <stop offset="0%" stop-color="#00e5ff" stop-opacity="0.8"/>
      <stop offset="100%" stop-color="#00e5ff" stop-opacity="0"/>
    </radialGradient>
    <filter id="gm-blur">
      <feGaussianBlur stdDeviation="5"/>
    </filter>
    <filter id="gm-soft">
      <feGaussianBlur stdDeviation="2.5"/>
    </filter>
    <filter id="gm-glow">
      <feGaussianBlur stdDeviation="7" result="b"/>
      <feMerge><feMergeNode in="b"/><feMergeNode in="SourceGraphic"/></feMerge>
    </filter>
    <filter id="gm-rgbglow">
      <feGaussianBlur stdDeviation="4" result="b"/>
      <feMerge><feMergeNode in="b"/><feMergeNode in="SourceGraphic"/></feMerge>
    </filter>
  </defs>

  <!-- BACKGROUND: deep purple-black room -->
  <rect x="0" y="0" width="800" height="500" fill="url(#gm-bg)"/>

  <!-- Ceiling -->
  <rect x="0" y="0" width="800" height="55" fill="#080610"/>
  <!-- Ceiling RGB LED strip glow cascade -->
  <rect x="0" y="50" width="800" height="8" fill="url(#gm-rgb)" opacity="0.85" filter="url(#gm-soft)"/>
  <rect x="0" y="42" width="800" height="30" fill="url(#gm-ceil-spill)" filter="url(#gm-blur)"/>
  <!-- Additional ceiling strip glow -->
  <rect x="0" y="53" width="800" height="4" fill="url(#gm-rgb)" opacity="0.7"/>

  <!-- Back wall: deep purple-black with acoustic panels -->
  <rect x="0" y="58" width="800" height="380" fill="#0f0a1a"/>

  <!-- ACOUSTIC PANELS on back wall: dark foam texture -->
  <!-- Panel 1 -->
  <rect x="30" y="70" width="95" height="140" rx="3" fill="#1a1525"/>
  <!-- Foam diamond texture pattern -->
  <g opacity="0.35" stroke="#252035" stroke-width="0.7" fill="none">
    <line x1="30" y1="78" x2="125" y2="78"/>
    <line x1="30" y1="88" x2="125" y2="88"/>
    <line x1="30" y1="98" x2="125" y2="98"/>
    <line x1="30" y1="108" x2="125" y2="108"/>
    <line x1="30" y1="118" x2="125" y2="118"/>
    <line x1="30" y1="128" x2="125" y2="128"/>
    <line x1="30" y1="138" x2="125" y2="138"/>
    <line x1="30" y1="148" x2="125" y2="148"/>
    <line x1="30" y1="158" x2="125" y2="158"/>
    <line x1="30" y1="168" x2="125" y2="168"/>
    <line x1="30" y1="178" x2="125" y2="178"/>
    <line x1="30" y1="188" x2="125" y2="188"/>
    <line x1="30" y1="198" x2="125" y2="198"/>
    <!-- Vertical lines -->
    <line x1="40" y1="70" x2="40" y2="210"/>
    <line x1="50" y1="70" x2="50" y2="210"/>
    <line x1="60" y1="70" x2="60" y2="210"/>
    <line x1="70" y1="70" x2="70" y2="210"/>
    <line x1="80" y1="70" x2="80" y2="210"/>
    <line x1="90" y1="70" x2="90" y2="210"/>
    <line x1="100" y1="70" x2="100" y2="210"/>
    <line x1="110" y1="70" x2="110" y2="210"/>
    <line x1="120" y1="70" x2="120" y2="210"/>
  </g>

  <!-- Panel 2 -->
  <rect x="145" y="70" width="95" height="140" rx="3" fill="#1a1525"/>
  <g opacity="0.3" stroke="#252035" stroke-width="0.7" fill="none">
    <line x1="145" y1="80" x2="240" y2="80"/>
    <line x1="145" y1="92" x2="240" y2="92"/>
    <line x1="145" y1="104" x2="240" y2="104"/>
    <line x1="145" y1="116" x2="240" y2="116"/>
    <line x1="145" y1="128" x2="240" y2="128"/>
    <line x1="145" y1="140" x2="240" y2="140"/>
    <line x1="145" y1="152" x2="240" y2="152"/>
    <line x1="145" y1="164" x2="240" y2="164"/>
    <line x1="145" y1="176" x2="240" y2="176"/>
    <line x1="145" y1="188" x2="240" y2="188"/>
    <line x1="145" y1="200" x2="240" y2="200"/>
    <line x1="155" y1="70" x2="155" y2="210"/>
    <line x1="167" y1="70" x2="167" y2="210"/>
    <line x1="179" y1="70" x2="179" y2="210"/>
    <line x1="191" y1="70" x2="191" y2="210"/>
    <line x1="203" y1="70" x2="203" y2="210"/>
    <line x1="215" y1="70" x2="215" y2="210"/>
    <line x1="227" y1="70" x2="227" y2="210"/>
    <line x1="239" y1="70" x2="239" y2="210"/>
  </g>

  <!-- Panel 3 (right side) -->
  <rect x="580" y="70" width="95" height="140" rx="3" fill="#1a1525"/>
  <g opacity="0.3" stroke="#252035" stroke-width="0.7" fill="none">
    <line x1="580" y1="80" x2="675" y2="80"/>
    <line x1="580" y1="92" x2="675" y2="92"/>
    <line x1="580" y1="104" x2="675" y2="104"/>
    <line x1="580" y1="116" x2="675" y2="116"/>
    <line x1="580" y1="128" x2="675" y2="128"/>
    <line x1="580" y1="140" x2="675" y2="140"/>
    <line x1="580" y1="152" x2="675" y2="152"/>
    <line x1="580" y1="164" x2="675" y2="164"/>
    <line x1="580" y1="176" x2="675" y2="176"/>
    <line x1="580" y1="188" x2="675" y2="188"/>
    <line x1="580" y1="200" x2="675" y2="200"/>
    <line x1="590" y1="70" x2="590" y2="210"/>
    <line x1="602" y1="70" x2="602" y2="210"/>
    <line x1="614" y1="70" x2="614" y2="210"/>
    <line x1="626" y1="70" x2="626" y2="210"/>
    <line x1="638" y1="70" x2="638" y2="210"/>
    <line x1="650" y1="70" x2="650" y2="210"/>
    <line x1="662" y1="70" x2="662" y2="210"/>
    <line x1="674" y1="70" x2="674" y2="210"/>
  </g>

  <!-- Panel 4 -->
  <rect x="695" y="70" width="95" height="140" rx="3" fill="#1a1525"/>
  <g opacity="0.3" stroke="#252035" stroke-width="0.7" fill="none">
    <line x1="695" y1="80" x2="790" y2="80"/>
    <line x1="695" y1="92" x2="790" y2="92"/>
    <line x1="695" y1="104" x2="790" y2="104"/>
    <line x1="695" y1="116" x2="790" y2="116"/>
    <line x1="695" y1="128" x2="790" y2="128"/>
    <line x1="695" y1="140" x2="790" y2="140"/>
    <line x1="695" y1="152" x2="790" y2="152"/>
    <line x1="695" y1="164" x2="790" y2="164"/>
    <line x1="695" y1="176" x2="790" y2="176"/>
    <line x1="695" y1="188" x2="790" y2="188"/>
    <line x1="705" y1="70" x2="705" y2="210"/>
    <line x1="717" y1="70" x2="717" y2="210"/>
    <line x1="729" y1="70" x2="729" y2="210"/>
    <line x1="741" y1="70" x2="741" y2="210"/>
    <line x1="753" y1="70" x2="753" y2="210"/>
    <line x1="765" y1="70" x2="765" y2="210"/>
    <line x1="777" y1="70" x2="777" y2="210"/>
  </g>

  <!-- FLOOR -->
  <rect x="0" y="438" width="800" height="62" fill="#0c0818"/>
  <!-- Floor RGB LED glow from under desk -->
  <rect x="65" y="438" width="510" height="15" fill="url(#gm-floor-spill)" filter="url(#gm-blur)"/>
  <!-- Floor under-desk LED strip (direct) -->
  <rect x="68" y="437" width="505" height="5" fill="url(#gm-rgb)" opacity="0.7" filter="url(#gm-soft)"/>
  <!-- Extended floor glow pool -->
  <rect x="0" y="445" width="800" height="55" fill="#0c0818"/>
  <rect x="30" y="440" width="540" height="50" fill="url(#gm-floor-spill)" opacity="0.5" filter="url(#gm-blur)"/>

  <!-- BACK WALL RGB STRIP (near ceiling, producing cascade) -->
  <!-- Already done above with ceiling strip -->

  <!-- L-SHAPED GAMING DESK -->
  <!-- Main desk surface (front horizontal section) -->
  <rect x="65" y="295" width="590" height="145" rx="4" fill="#181220"/>
  <!-- Desk surface subtle texture -->
  <rect x="65" y="295" width="590" height="145" rx="4" fill="#1c1628" opacity="0.6"/>
  <!-- Desk top edge highlight -->
  <rect x="65" y="295" width="590" height="5" rx="2" fill="#221a30" opacity="0.7"/>
  <!-- Desk front edge RGB strip -->
  <rect x="65" y="435" width="590" height="5" rx="1" fill="url(#gm-rgb)" opacity="0.85"/>
  <rect x="65" y="430" width="590" height="12" fill="url(#gm-rgb)" opacity="0.15" filter="url(#gm-soft)"/>
  <!-- Desk legs -->
  <rect x="72" y="438" width="16" height="42" rx="2" fill="#0f0c18"/>
  <rect x="640" y="438" width="16" height="42" rx="2" fill="#0f0c18"/>
  <rect x="250" y="438" width="14" height="42" rx="2" fill="#0f0c18"/>
  <rect x="490" y="438" width="14" height="42" rx="2" fill="#0f0c18"/>

  <!-- Side wing of L-shape (going back, right side implied by monitors going to wall) -->
  <!-- Right side desk extension -->
  <rect x="580" y="218" width="100" height="78" rx="3" fill="#181220" opacity="0.85"/>
  <rect x="580" y="218" width="100" height="4" fill="#221a30" opacity="0.6"/>

  <!-- UNDER DESK RGB LED strips casting floor rainbow -->
  <!-- This is expressed via the floor gradients above -->
  <!-- Additional LED strip visible under desk front -->
  <rect x="68" y="436" width="504" height="3" fill="url(#gm-rgb)" opacity="0.9"/>

  <!-- THREE MONITORS -->
  <!-- LEFT MONITOR (side panel with HUD) -->
  <!-- Monitor frame -->
  <rect x="70" y="158" width="175" height="140" rx="4" fill="#0a0812"/>
  <rect x="74" y="162" width="167" height="132" rx="3" fill="#050408"/>
  <!-- Left monitor: purple HUD/UI content -->
  <rect x="76" y="164" width="163" height="128" rx="2" fill="#0a0520"/>
  <!-- HUD elements -->
  <rect x="80" y="168" width="60" height="8" rx="1" fill="#6600cc" opacity="0.8"/>
  <rect x="80" y="180" x2="200" fill="#4400aa" opacity="0.6" width="90" height="3" rx="1"/>
  <rect x="80" y="187" width="75" height="3" rx="1" fill="#4400aa" opacity="0.55"/>
  <rect x="80" y="194" width="55" height="3" rx="1" fill="#6600cc" opacity="0.5"/>
  <!-- Stat bars -->
  <rect x="80" y="202" width="80" height="5" rx="2" fill="#220044" opacity="0.8"/>
  <rect x="80" y="202" width="58" height="5" rx="2" fill="#8800ff" opacity="0.9"/>
  <rect x="80" y="212" width="80" height="5" rx="2" fill="#220044" opacity="0.8"/>
  <rect x="80" y="212" width="42" height="5" rx="2" fill="#6600cc" opacity="0.9"/>
  <rect x="80" y="222" width="80" height="5" rx="2" fill="#220044" opacity="0.8"/>
  <rect x="80" y="222" width="65" height="5" rx="2" fill="#8800ff" opacity="0.85"/>
  <!-- Mini map corner -->
  <rect x="195" y="238" width="38" height="38" rx="2" fill="#180028" opacity="0.9"/>
  <rect x="198" y="241" width="32" height="32" rx="1" fill="#220035" opacity="0.8"/>
  <circle cx="214" cy="257" r="6" fill="none" stroke="#8800ff" stroke-width="0.8" opacity="0.7"/>
  <circle cx="214" cy="257" r="2" fill="#ff00aa" opacity="0.8"/>
  <!-- HUD glow on monitor -->
  <ellipse cx="157" cy="295" rx="85" ry="18" fill="#6600cc" opacity="0.12" filter="url(#gm-blur)"/>
  <!-- Screen glow onto desk -->
  <ellipse cx="157" cy="297" rx="90" ry="20" fill="url(#gm-hudglow)" filter="url(#gm-blur)"/>
  <!-- Monitor stand/foot -->
  <rect x="147" y="298" width="14" height="20" fill="#0f0c18"/>
  <rect x="132" y="316" width="44" height="5" rx="2" fill="#141018"/>

  <!-- CENTER MONITOR (main: large, colorful game scene) -->
  <!-- Infinity mirror RGB border around center monitor -->
  <!-- Outer glow ring -->
  <rect x="248" y="125" width="308" height="175" rx="5" fill="none" stroke="url(#gm-rgb)" stroke-width="3" filter="url(#gm-soft)"/>
  <!-- Monitor frame -->
  <rect x="250" y="127" width="304" height="172" rx="5" fill="#0a0812"/>
  <!-- RGB border inner glow -->
  <rect x="252" y="129" width="300" height="168" rx="4" stroke="url(#gm-rgb)" stroke-width="1.5" fill="none" opacity="0.7"/>
  <rect x="255" y="132" width="294" height="162" rx="3" fill="#050408"/>
  <!-- Center monitor: game scene - green landscape + orange explosion -->
  <rect x="257" y="134" width="290" height="158" rx="2" fill="#0a1a05"/>
  <!-- Sky in game -->
  <rect x="257" y="134" width="290" height="60" rx="2" fill="#050d25"/>
  <!-- Game horizon / land -->
  <rect x="257" y="192" width="290" height="100" rx="1" fill="#0f2a05"/>
  <!-- Mountains/terrain silhouettes in game -->
  <polygon points="257,195 300,165 330,185 360,155 400,175 440,148 480,170 510,162 547,180 547,195" fill="#183808" opacity="0.9"/>
  <!-- Orange explosion effect center-right -->
  <ellipse cx="470" cy="185" rx="35" ry="28" fill="#ff6020" opacity="0.75"/>
  <ellipse cx="470" cy="185" rx="22" ry="18" fill="#ff9040" opacity="0.8"/>
  <ellipse cx="470" cy="183" rx="12" ry="10" fill="#ffcc60" opacity="0.9"/>
  <!-- Explosion outer sparks -->
  <ellipse cx="455" cy="170" rx="8" ry="5" fill="#ff8030" opacity="0.6" transform="rotate(-30 455 170)"/>
  <ellipse cx="488" cy="168" rx="6" ry="4" fill="#ff6020" opacity="0.55" transform="rotate(20 488 168)"/>
  <ellipse cx="452" cy="200" rx="7" ry="4" fill="#ff7030" opacity="0.5" transform="rotate(15 452 200)"/>
  <!-- Game trees/environment -->
  <rect x="260" y="208" width="12" height="40" fill="#0f2008" opacity="0.8"/>
  <ellipse cx="266" cy="208" rx="14" ry="12" fill="#1a3a08" opacity="0.85"/>
  <rect x="285" y="215" width="10" height="32" fill="#0f2008" opacity="0.8"/>
  <ellipse cx="290" cy="215" rx="12" ry="10" fill="#183208" opacity="0.8"/>
  <!-- Player character silhouette -->
  <rect x="340" y="235" width="8" height="18" rx="2" fill="#30a040" opacity="0.8"/>
  <circle cx="344" cy="232" r="6" fill="#30a040" opacity="0.8"/>
  <!-- Weapon flash -->
  <rect x="348" y="238" width="20" height="3" rx="1" fill="#ffee60" opacity="0.9"/>
  <!-- HUD overlay in game center -->
  <rect x="260" y="136" width="55" height="8" rx="1" fill="#ff4020" opacity="0.7"/>
  <rect x="260" y="148" width="40" height="4" rx="1" fill="#ff8040" opacity="0.55"/>
  <rect x="480" y="136" width="60" height="8" rx="1" fill="#00aa44" opacity="0.7"/>
  <rect x="484" y="148" width="50" height="4" rx="1" fill="#00cc55" opacity="0.5"/>
  <!-- Center monitor glow on desk surface -->
  <ellipse cx="402" cy="302" rx="155" ry="25" fill="#ff6030" opacity="0.1" filter="url(#gm-blur)"/>
  <ellipse cx="402" cy="296" rx="160" ry="22" fill="url(#gm-screenglow)" filter="url(#gm-blur)"/>
  <!-- Monitor stand -->
  <rect x="395" y="299" width="14" height="20" fill="#0f0c18"/>
  <rect x="374" y="317" width="56" height="6" rx="2" fill="#141018"/>
  <!-- Center monitor stand base -->
  <ellipse cx="402" cy="325" rx="42" ry="8" fill="#0d0a18" opacity="0.7"/>

  <!-- RIGHT MONITOR (side panel with HUD/UI) -->
  <!-- Monitor frame -->
  <rect x="557" y="158" width="175" height="140" rx="4" fill="#0a0812"/>
  <rect x="561" y="162" width="167" height="132" rx="3" fill="#050408"/>
  <!-- Right monitor: purple-blue UI/HUD -->
  <rect x="563" y="164" width="163" height="128" rx="2" fill="#040815"/>
  <!-- HUD elements right monitor -->
  <rect x="635" y="168" width="80" height="8" rx="1" fill="#0044cc" opacity="0.8"/>
  <rect x="640" y="180" width="70" height="3" rx="1" fill="#0033aa" opacity="0.65"/>
  <rect x="645" y="187" width="58" height="3" rx="1" fill="#0044cc" opacity="0.55"/>
  <!-- Score/stats right side -->
  <rect x="567" y="195" width="90" height="6" rx="1" fill="#003388" opacity="0.7"/>
  <rect x="567" y="195" width="65" height="6" rx="1" fill="#0088ff" opacity="0.9"/>
  <rect x="567" y="207" width="90" height="6" rx="1" fill="#003388" opacity="0.7"/>
  <rect x="567" y="207" width="78" height="6" rx="1" fill="#0066cc" opacity="0.85"/>
  <rect x="567" y="219" width="90" height="6" rx="1" fill="#003388" opacity="0.7"/>
  <rect x="567" y="219" width="52" height="6" rx="1" fill="#0088ff" opacity="0.8"/>
  <!-- Inventory grid -->
  <rect x="576" y="238" width="18" height="18" rx="1" fill="#001a44" stroke="#0044cc" stroke-width="0.8"/>
  <rect x="598" y="238" width="18" height="18" rx="1" fill="#001a44" stroke="#0033aa" stroke-width="0.8"/>
  <rect x="620" y="238" width="18" height="18" rx="1" fill="#001a44" stroke="#0044cc" stroke-width="0.8"/>
  <!-- Inventory icons simplified -->
  <rect x="579" y="241" width="12" height="12" rx="1" fill="#0066cc" opacity="0.6"/>
  <circle cx="607" cy="247" r="6" fill="#004488" opacity="0.7"/>
  <rect x="623" y="241" width="12" height="12" rx="1" fill="#0055bb" opacity="0.55"/>
  <!-- Monitor glow on desk -->
  <ellipse cx="644" cy="297" rx="85" ry="18" fill="#0088ff" opacity="0.1" filter="url(#gm-blur)"/>
  <ellipse cx="644" cy="295" rx="88" ry="20" fill="url(#gm-hudglow)" opacity="0.4" filter="url(#gm-blur)"/>
  <!-- Monitor stand right -->
  <rect x="637" y="298" width="14" height="20" fill="#0f0c18"/>
  <rect x="622" y="316" width="44" height="5" rx="2" fill="#141018"/>

  <!-- RGB KEYBOARD on desk surface -->
  <rect x="248" y="355" width="200" height="52" rx="4" fill="#0f0c18"/>
  <rect x="252" y="359" width="192" height="44" rx="3" fill="url(#gm-kb)" opacity="0.9"/>
  <!-- Key rows on keyboard (grid lines) -->
  <g stroke="#0a0810" stroke-width="0.8" opacity="0.6">
    <line x1="256" y1="368" x2="440" y2="368"/>
    <line x1="256" y1="378" x2="440" y2="378"/>
    <line x1="256" y1="388" x2="440" y2="388"/>
    <line x1="256" y1="398" x2="440" y2="398"/>
    <line x1="275" y1="359" x2="275" y2="403"/>
    <line x1="295" y1="359" x2="295" y2="403"/>
    <line x1="315" y1="359" x2="315" y2="403"/>
    <line x1="335" y1="359" x2="335" y2="403"/>
    <line x1="355" y1="359" x2="355" y2="403"/>
    <line x1="375" y1="359" x2="375" y2="403"/>
    <line x1="395" y1="359" x2="395" y2="403"/>
    <line x1="415" y1="359" x2="415" y2="403"/>
    <line x1="435" y1="359" x2="435" y2="403"/>
  </g>
  <!-- Keyboard glow on desk -->
  <ellipse cx="348" cy="410" rx="105" ry="15" fill="url(#gm-rgb)" opacity="0.08" filter="url(#gm-blur)"/>

  <!-- GAMING MOUSE -->
  <ellipse cx="470" cy="380" rx="22" ry="30" fill="#0d0a18"/>
  <ellipse cx="470" cy="374" rx="18" ry="22" fill="#151020"/>
  <!-- Mouse RGB side strip -->
  <rect x="450" y="365" width="3" height="28" rx="1" fill="#ff0040" opacity="0.8"/>
  <rect x="487" y="365" width="3" height="28" rx="1" fill="#8800ff" opacity="0.8"/>
  <!-- Mouse scroll wheel -->
  <ellipse cx="470" cy="368" rx="5" ry="8" fill="#201830"/>
  <rect x="468" y="364" width="4" height="8" rx="2" fill="#00e5ff" opacity="0.5"/>

  <!-- GAMING CHAIR: high-back with red accents -->
  <!-- Chair behind desk (visible top portion) -->
  <!-- Chair back -->
  <rect x="330" y="210" width="145" height="90" rx="6" fill="#0f0d18"/>
  <rect x="336" y="215" width="133" height="82" rx="5" fill="#131018"/>
  <!-- Red accent strips on chair sides -->
  <rect x="334" y="215" width="6" height="82" rx="3" fill="#cc1a1a"/>
  <rect x="465" y="215" width="6" height="82" rx="3" fill="#cc1a1a"/>
  <!-- Chair seam line center -->
  <line x1="402" y1="218" x2="402" y2="294" stroke="#0a0812" stroke-width="2.5" opacity="0.8"/>
  <!-- Headrest top of chair -->
  <rect x="346" y="208" width="112" height="24" rx="5" fill="#141018"/>
  <rect x="350" y="210" width="104" height="20" rx="4" fill="#0f0d18"/>
  <!-- Headrest red accent -->
  <rect x="350" y="210" width="5" height="20" rx="3" fill="#cc1a1a"/>
  <rect x="449" y="210" width="5" height="20" rx="3" fill="#cc1a1a"/>
  <!-- Logo on chair back center -->
  <circle cx="402" cy="252" r="12" fill="none" stroke="#cc1a1a" stroke-width="1.5" opacity="0.5"/>
  <rect x="397" y="248" width="10" height="8" rx="1" fill="#cc1a1a" opacity="0.35"/>
  <!-- Chair armrests barely visible at desk edge -->
  <rect x="325" y="268" width="18" height="30" rx="3" fill="#0f0d18"/>
  <rect x="462" y="268" width="18" height="30" rx="3" fill="#0f0d18"/>

  <!-- ZAKEY SMART PANEL on wall: "GAMING MODE" -->
  <rect x="12" y="255" width="42" height="110" rx="5" fill="#0a0812"/>
  <rect x="15" y="258" width="36" height="104" rx="4" fill="#060610" stroke="#00e5ff" stroke-width="0.8"/>
  <!-- Panel screen -->
  <rect x="18" y="265" width="30" height="60" rx="2" fill="#020510"/>
  <!-- "GAMING MODE" text -->
  <text x="33" y="278" font-family="sans-serif" font-size="4.5" fill="#00e5ff" text-anchor="middle" font-weight="bold" opacity="0.95">GAMING</text>
  <text x="33" y="286" font-family="sans-serif" font-size="4.5" fill="#00e5ff" text-anchor="middle" font-weight="bold" opacity="0.95">MODE</text>
  <!-- Divider -->
  <line x1="20" y1="292" x2="46" y2="292" stroke="#00e5ff" stroke-width="0.7" opacity="0.6"/>
  <!-- Mode buttons -->
  <rect x="20" y="296" width="12" height="8" rx="2" fill="#ff0040" opacity="0.7"/>
  <rect x="35" y="296" width="10" height="8" rx="2" fill="#0088ff" opacity="0.65"/>
  <rect x="20" y="308" width="10" height="8" rx="2" fill="#8800ff" opacity="0.65"/>
  <rect x="33" y="308" width="12" height="8" rx="2" fill="#00ff88" opacity="0.6"/>
  <!-- Status LED row -->
  <circle cx="21" cy="322" r="2.5" fill="#00e5ff" opacity="0.9"/>
  <circle cx="28" cy="322" r="2.5" fill="#00ff88" opacity="0.75"/>
  <circle cx="35" cy="322" r="2.5" fill="#ff0040" opacity="0.6"/>
  <!-- Panel cyan accent LED ring -->
  <circle cx="33" cy="348" r="7" fill="#020510" stroke="#00e5ff" stroke-width="1.8"/>
  <circle cx="33" cy="348" r="4" fill="#00e5ff" opacity="0.6"/>
  <!-- Panel glow -->
  <ellipse cx="33" cy="310" rx="30" ry="58" fill="#00e5ff" opacity="0.05" filter="url(#gm-blur)"/>

  <!-- Zakey LED strip controller on desk edge (right side) -->
  <rect x="550" y="420" width="55" height="16" rx="3" fill="#0a0812"/>
  <rect x="553" y="422" width="49" height="12" rx="2" fill="#060610" stroke="#00e5ff" stroke-width="0.6"/>
  <!-- Controller screen shows RGB preview -->
  <rect x="556" y="424" width="22" height="8" rx="1" fill="url(#gm-rgb)" opacity="0.8"/>
  <!-- Control wheel/dial -->
  <circle cx="588" cy="428" r="5" fill="#0f0c18" stroke="#00e5ff" stroke-width="0.8"/>
  <circle cx="588" cy="428" r="2.5" fill="#00e5ff" opacity="0.6"/>

  <!-- RGB screen glow illuminating desk surface (all three monitors) -->
  <rect x="65" y="295" width="590" height="50" fill="url(#gm-midglow)" opacity="0.3"/>
  <!-- Direct colored monitor glow on desk surface -->
  <ellipse cx="157" cy="297" rx="78" ry="15" fill="#8800ff" opacity="0.06" filter="url(#gm-blur)"/>
  <ellipse cx="402" cy="297" rx="145" ry="18" fill="#ff6030" opacity="0.08" filter="url(#gm-blur)"/>
  <ellipse cx="644" cy="297" rx="78" ry="15" fill="#0088ff" opacity="0.06" filter="url(#gm-blur)"/>

  <!-- Overall room RGB ambiance fill -->
  <rect x="0" y="58" width="800" height="380" fill="url(#gm-rgb)" opacity="0.015"/>

</svg>
