<svg xmlns="http://www.w3.org/2000/svg" viewBox="0 0 1200 900">
  <defs>
    <linearGradient id="bg" x1="0%" y1="0%" x2="100%" y2="100%">
      <stop offset="0%" stop-color="#07050d"/>
      <stop offset="100%" stop-color="#0f0c17"/>
    </linearGradient>
    <radialGradient id="glow" cx="50%" cy="40%" r="55%">
      <stop offset="0%" stop-color="#c9a45c" stop-opacity="0.08"/>
      <stop offset="100%" stop-color="#c9a45c" stop-opacity="0"/>
    </radialGradient>
  </defs>
  <rect width="1200" height="900" fill="url(#bg)"/>
  <rect width="1200" height="900" fill="url(#glow)"/>
  <!-- Hotel tower — wide and imposing -->
  <rect x="250" y="200" width="700" height="460" fill="#0f0a1a" rx="4"/>
  <!-- Canopy / entrance awning -->
  <polygon points="420,660 780,660 820,700 380,700" fill="#1a1425"/>
  <!-- Window grid — hotel pattern -->
  <rect x="290" y="240" width="70" height="55" fill="#c9a45c" fill-opacity="0.09" rx="2"/>
  <rect x="380" y="240" width="70" height="55" fill="#c9a45c" fill-opacity="0.13" rx="2"/>
  <rect x="470" y="240" width="70" height="55" fill="#c9a45c" fill-opacity="0.08" rx="2"/>
  <rect x="560" y="240" width="70" height="55" fill="#c9a45c" fill-opacity="0.14" rx="2"/>
  <rect x="650" y="240" width="70" height="55" fill="#c9a45c" fill-opacity="0.09" rx="2"/>
  <rect x="740" y="240" width="70" height="55" fill="#c9a45c" fill-opacity="0.11" rx="2"/>
  <rect x="830" y="240" width="70" height="55" fill="#c9a45c" fill-opacity="0.07" rx="2"/>

  <rect x="290" y="320" width="70" height="55" fill="#c9a45c" fill-opacity="0.12" rx="2"/>
  <rect x="380" y="320" width="70" height="55" fill="#c9a45c" fill-opacity="0.07" rx="2"/>
  <rect x="470" y="320" width="70" height="55" fill="#c9a45c" fill-opacity="0.15" rx="2"/>
  <rect x="560" y="320" width="70" height="55" fill="#c9a45c" fill-opacity="0.09" rx="2"/>
  <rect x="650" y="320" width="70" height="55" fill="#c9a45c" fill-opacity="0.12" rx="2"/>
  <rect x="740" y="320" width="70" height="55" fill="#c9a45c" fill-opacity="0.08" rx="2"/>
  <rect x="830" y="320" width="70" height="55" fill="#c9a45c" fill-opacity="0.13" rx="2"/>

  <rect x="290" y="400" width="70" height="55" fill="#c9a45c" fill-opacity="0.08" rx="2"/>
  <rect x="380" y="400" width="70" height="55" fill="#c9a45c" fill-opacity="0.14" rx="2"/>
  <rect x="470" y="400" width="70" height="55" fill="#c9a45c" fill-opacity="0.09" rx="2"/>
  <rect x="560" y="400" width="70" height="55" fill="#c9a45c" fill-opacity="0.11" rx="2"/>
  <rect x="650" y="400" width="70" height="55" fill="#c9a45c" fill-opacity="0.15" rx="2"/>
  <rect x="740" y="400" width="70" height="55" fill="#c9a45c" fill-opacity="0.09" rx="2"/>
  <rect x="830" y="400" width="70" height="55" fill="#c9a45c" fill-opacity="0.10" rx="2"/>

  <rect x="290" y="480" width="70" height="55" fill="#c9a45c" fill-opacity="0.11" rx="2"/>
  <rect x="380" y="480" width="70" height="55" fill="#c9a45c" fill-opacity="0.08" rx="2"/>
  <rect x="470" y="480" width="70" height="55" fill="#c9a45c" fill-opacity="0.13" rx="2"/>
  <rect x="560" y="480" width="70" height="55" fill="#c9a45c" fill-opacity="0.07" rx="2"/>
  <rect x="650" y="480" width="70" height="55" fill="#c9a45c" fill-opacity="0.16" rx="2"/>
  <rect x="740" y="480" width="70" height="55" fill="#c9a45c" fill-opacity="0.10" rx="2"/>
  <rect x="830" y="480" width="70" height="55" fill="#c9a45c" fill-opacity="0.08" rx="2"/>

  <!-- Lobby entrance -->
  <rect x="490" y="590" width="220" height="70" fill="#c9a45c" fill-opacity="0.06" rx="2"/>
  <rect x="540" y="590" width="60" height="70" fill="#c9a45c" fill-opacity="0.12" rx="1"/>
  <rect x="600" y="590" width="60" height="70" fill="#c9a45c" fill-opacity="0.09" rx="1"/>
  <!-- Room panel cue -->
  <rect x="850" y="330" width="30" height="50" fill="#c9a45c" fill-opacity="0.20" rx="4"/>
  <circle cx="865" cy="348" r="7" fill="#c9a45c" fill-opacity="0.40"/>
  <!-- Ambient strip -->
  <rect x="250" y="658" width="700" height="2" fill="#c9a45c" fill-opacity="0.20"/>
  <!-- Ground -->
  <rect x="0" y="700" width="1200" height="3" fill="#c9a45c" fill-opacity="0.05"/>
  <path d="M0 800 Q400 770 700 785 Q950 800 1200 775 L1200 900 L0 900Z" fill="#07050d" fill-opacity="0.75"/>
  <!-- Wordmark -->
  <text x="600" y="840" font-family="Manrope,Inter,system-ui,sans-serif" font-size="22" font-weight="700"
        fill="#c9a45c" fill-opacity="0.45" text-anchor="middle" letter-spacing="8">ZAKEY</text>
  <text x="600" y="866" font-family="Manrope,Inter,system-ui,sans-serif" font-size="13" font-weight="400"
        fill="#9aa3b2" fill-opacity="0.40" text-anchor="middle" letter-spacing="3">SMART HOTEL</text>
</svg>
