<svg xmlns="http://www.w3.org/2000/svg" viewBox="0 0 1200 900">
  <defs>
    <linearGradient id="a" x1="0%" y1="0%" x2="100%" y2="100%">
      <stop offset="0%" stop-color="#050810"/>
      <stop offset="100%" stop-color="#0a0c1a"/>
    </linearGradient>
    <radialGradient id="b" cx="50%" cy="40%" r="55%">
      <stop offset="0%" stop-color="#22d3ee" stop-opacity=".1"/>
      <stop offset="100%" stop-color="#22d3ee" stop-opacity="0"/>
    </radialGradient>
    <radialGradient id="c" cx="50%" cy="50%" r="50%">
      <stop offset="0%" stop-color="#fff" stop-opacity=".8"/>
      <stop offset="100%" stop-color="#fff" stop-opacity="0"/>
    </radialGradient>
    <linearGradient id="d" x1="0%" y1="0%" x2="0%" y2="100%">
      <stop offset="0%" stop-color="#1e1a2e"/>
      <stop offset="100%" stop-color="#141020"/>
    </linearGradient>
    <linearGradient id="e" x1="0%" y1="0%" x2="100%" y2="0%">
      <stop offset="0%" stop-color="#22d3ee"/>
      <stop offset="100%" stop-color="#818cf8"/>
    </linearGradient>
  </defs>
  <rect width="1200" height="900" fill="url(#a)"/>
  <rect width="1200" height="900" fill="url(#b)"/>
  <rect x="0" y="710" width="1200" height="190" fill="#0a0c1a" opacity=".7"/>
  <line x1="0" y1="710" x2="1200" y2="710" stroke="#22d3ee" stroke-opacity=".08" stroke-width="1"/>
  <!-- Ceiling track rail -->
  <rect x="100" y="90" width="1000" height="7" rx="3" fill="#1e1a2e" stroke="#2a2240" stroke-width="1"/>
  <rect x="220" y="84" width="11" height="24" rx="3" fill="#1a1628" stroke="#22d3ee" stroke-opacity=".4" stroke-width="1"/>
  <ellipse cx="225" cy="108" rx="5" ry="2.5" fill="#22d3ee" opacity=".7"/>
  <rect x="500" y="84" width="11" height="24" rx="3" fill="#1a1628" stroke="#22d3ee" stroke-opacity=".4" stroke-width="1"/>
  <ellipse cx="505" cy="108" rx="5" ry="2.5" fill="#22d3ee" opacity=".7"/>
  <rect x="740" y="84" width="11" height="24" rx="3" fill="#1a1628" stroke="#22d3ee" stroke-opacity=".4" stroke-width="1"/>
  <ellipse cx="745" cy="108" rx="5" ry="2.5" fill="#22d3ee" opacity=".7"/>
  <ellipse cx="985" cy="105" rx="5" ry="3" fill="#fff" opacity=".35"/>
  <!-- Spotlight cones -->
  <path d="M225,108 L120,710 L330,710 Z" fill="url(#c)" opacity=".04"/>
  <path d="M505,108 L400,710 L610,710 Z" fill="url(#c)" opacity=".04"/>
  <!-- Left shelving -->
  <rect x="60" y="220" width="250" height="490" rx="5" fill="url(#d)" stroke="#2a2240" stroke-width="1"/>
  <rect x="60" y="320" width="250" height="5" rx="2" fill="#2a2240"/>
  <rect x="60" y="440" width="250" height="5" rx="2" fill="#2a2240"/>
  <rect x="60" y="560" width="250" height="5" rx="2" fill="#2a2240"/>
  <rect x="64" y="317" width="242" height="2" rx="1" fill="#22d3ee" opacity=".3"/>
  <rect x="64" y="437" width="242" height="2" rx="1" fill="#22d3ee" opacity=".2"/>
  <rect x="64" y="557" width="242" height="2" rx="1" fill="#22d3ee" opacity=".12"/>
  <!-- Shelf items (top shelf) -->
  <rect x="78" y="338" width="48" height="68" rx="4" fill="#1a1628" stroke="#22d3ee" stroke-opacity=".18" stroke-width="1"/>
  <rect x="138" y="348" width="38" height="58" rx="4" fill="#161224" stroke="#22d3ee" stroke-opacity=".14" stroke-width="1"/>
  <rect x="190" y="342" width="52" height="64" rx="4" fill="#1a1628" stroke="#22d3ee" stroke-opacity=".18" stroke-width="1"/>
  <rect x="256" y="350" width="42" height="56" rx="4" fill="#161224" stroke="#22d3ee" stroke-opacity=".1" stroke-width="1"/>
  <rect x="85" y="455" width="55" height="50" rx="4" fill="#161224" stroke="#22d3ee" stroke-opacity=".14" stroke-width="1"/>
  <rect x="158" y="460" width="42" height="45" rx="4" fill="#1a1628" stroke="#22d3ee" stroke-opacity=".14" stroke-width="1"/>
  <!-- Central display -->
  <rect x="490" y="400" width="220" height="310" rx="7" fill="#141020" stroke="#22d3ee" stroke-opacity=".18" stroke-width="1"/>
  <rect x="508" y="418" width="184" height="238" rx="5" fill="#0d1020" stroke="#22d3ee" stroke-opacity=".12" stroke-width="1"/>
  <rect x="524" y="434" width="152" height="200" rx="4" fill="#0a0d18"/>
  <rect x="535" y="448" width="130" height="10" rx="2" fill="#22d3ee" opacity=".2"/>
  <rect x="535" y="465" width="90" height="7" rx="2" fill="#22d3ee" opacity=".1"/>
  <rect x="535" y="488" width="130" height="62" rx="4" fill="#0f1a2e" opacity=".8"/>
  <circle cx="600" cy="519" r="18" fill="#22d3ee" opacity=".1"/>
  <circle cx="600" cy="519" r="10" fill="#22d3ee" opacity=".22"/>
  <rect x="550" y="700" width="100" height="10" rx="3" fill="#1e1a2e" stroke="#2a2240" stroke-width="1"/>
  <!-- Wall panel -->
  <rect x="395" y="355" width="48" height="78" rx="5" fill="#0f1020" stroke="#22d3ee" stroke-opacity=".32" stroke-width="1"/>
  <rect x="403" y="363" width="32" height="18" rx="2" fill="#0a0d18"/>
  <rect x="403" y="390" width="32" height="5" rx="2" fill="#22d3ee" opacity=".25"/>
  <!-- Mannequin -->
  <ellipse cx="910" cy="290" rx="26" ry="32" fill="#1a1628" stroke="#2a2240" stroke-width="1"/>
  <rect x="888" y="320" width="44" height="110" rx="5" fill="#1a1628" stroke="#2a2240" stroke-width="1"/>
  <rect x="906" y="430" width="5" height="185" rx="2" fill="#1e1a2e"/>
  <ellipse cx="909" cy="712" rx="26" ry="7" fill="#141020" stroke="#2a2240" stroke-width="1"/>
  <!-- Sensors -->
  <circle cx="300" cy="60" r="7" fill="#1e1a2e" stroke="#22d3ee" stroke-opacity=".45" stroke-width="1"/>
  <circle cx="300" cy="60" r="3" fill="#22d3ee" opacity=".7"/>
  <circle cx="620" cy="55" r="7" fill="#1e1a2e" stroke="#22d3ee" stroke-opacity=".45" stroke-width="1"/>
  <circle cx="620" cy="55" r="3" fill="#22d3ee" opacity=".7"/>
  <circle cx="920" cy="60" r="7" fill="#1e1a2e" stroke="#f59e0b" stroke-opacity=".45" stroke-width="1"/>
  <circle cx="920" cy="60" r="3" fill="#f59e0b" opacity=".7"/>
  <line x1="620" y1="62" x2="600" y2="400" stroke="#22d3ee" stroke-opacity=".05" stroke-width="1" stroke-dasharray="4 6"/>
  <rect x="0" y="858" width="1200" height="3" fill="url(#e)" opacity=".5"/>
  <text x="600" y="840" font-family="system-ui,sans-serif" font-size="13" fill="#fff" fill-opacity=".15" text-anchor="middle" letter-spacing="5">ZAKEY</text>
</svg>
