<svg xmlns="http://www.w3.org/2000/svg" viewBox="0 0 800 600" width="800" height="600">
  <defs>
    <linearGradient id="sceneBg" x1="0%" y1="0%" x2="0%" y2="100%">
      <stop offset="0%" stop-color="#060a14"/>
      <stop offset="100%" stop-color="#05070d"/>
    </linearGradient>
    <filter id="glow">
      <feGaussianBlur stdDeviation="5" result="coloredBlur"/>
      <feMerge><feMergeNode in="coloredBlur"/><feMergeNode in="SourceGraphic"/></feMerge>
    </filter>
  </defs>
  <rect width="800" height="600" fill="url(#sceneBg)"/>
  <text x="400" y="50" font-family="Arial, sans-serif" font-size="18" font-weight="300" letter-spacing="4" fill="#c0c0c0" text-anchor="middle" opacity="0.9">AUTOMATION SCENE FLOW</text>
  <line x1="250" y1="62" x2="550" y2="62" stroke="#00d4ff" stroke-width="1" opacity="0.4"/>
  <!-- Flow arrows between main scenes -->
  <line x1="220" y1="200" x2="340" y2="200" stroke="#00d4ff" stroke-width="1.5" opacity="0.5" stroke-dasharray="8,4"/>
  <polygon points="335,194 350,200 335,206" fill="#00d4ff" opacity="0.6"/>
  <line x1="460" y1="200" x2="580" y2="200" stroke="#00d4ff" stroke-width="1.5" opacity="0.5" stroke-dasharray="8,4"/>
  <polygon points="575,194 590,200 575,206" fill="#00d4ff" opacity="0.6"/>
  <path d="M680 280 Q680 420 400 420 Q120 420 120 280" fill="none" stroke="#00d4ff" stroke-width="1" opacity="0.3" stroke-dasharray="6,4"/>
  <polygon points="117,285 120,268 127,282" fill="#00d4ff" opacity="0.4"/>
  <!-- MORNING SCENE -->
  <rect x="50" y="110" width="170" height="200" fill="#001015" rx="8" stroke="#f59e0b" stroke-width="1.5" opacity="0.8"/>
  <rect x="65" y="125" width="140" height="80" fill="#0a1020" rx="4"/>
  <circle cx="135" cy="165" r="22" fill="#f59e0b" opacity="0.3"/>
  <circle cx="135" cy="165" r="14" fill="#f59e0b" opacity="0.6"/>
  <line x1="135" y1="138" x2="135" y2="130" stroke="#f59e0b" stroke-width="2" opacity="0.5"/>
  <line x1="157" y1="143" x2="163" y2="137" stroke="#f59e0b" stroke-width="2" opacity="0.5"/>
  <line x1="162" y1="165" x2="170" y2="165" stroke="#f59e0b" stroke-width="2" opacity="0.5"/>
  <line x1="113" y1="143" x2="107" y2="137" stroke="#f59e0b" stroke-width="2" opacity="0.5"/>
  <line x1="108" y1="165" x2="100" y2="165" stroke="#f59e0b" stroke-width="2" opacity="0.5"/>
  <text x="135" y="222" font-family="Arial, sans-serif" font-size="13" fill="#f59e0b" text-anchor="middle" font-weight="bold">MORNING</text>
  <line x1="65" y1="232" x2="205" y2="232" stroke="#f59e0b" stroke-width="0.5" opacity="0.4"/>
  <text x="135" y="250" font-family="Arial, sans-serif" font-size="9" fill="#c0c0c0" text-anchor="middle" opacity="0.7">Lights: 90% Cool</text>
  <text x="135" y="265" font-family="Arial, sans-serif" font-size="9" fill="#c0c0c0" text-anchor="middle" opacity="0.7">Temp: 20C</text>
  <text x="135" y="280" font-family="Arial, sans-serif" font-size="9" fill="#c0c0c0" text-anchor="middle" opacity="0.6">Blinds: Open</text>
  <text x="135" y="295" font-family="Arial, sans-serif" font-size="9" fill="#f59e0b" text-anchor="middle" opacity="0.7">07:00 Trigger</text>
  <!-- EVENING SCENE -->
  <rect x="315" y="110" width="170" height="200" fill="#001015" rx="8" stroke="#f59e0b" stroke-width="1.5" opacity="0.6"/>
  <rect x="330" y="125" width="140" height="80" fill="#0a1020" rx="4"/>
  <ellipse cx="400" cy="185" rx="60" ry="20" fill="#f59e0b" opacity="0.08"/>
  <circle cx="400" cy="168" r="18" fill="#f59e0b" opacity="0.25"/>
  <circle cx="400" cy="168" r="12" fill="#f59e0b" opacity="0.5"/>
  <line x1="345" y1="182" x2="455" y2="182" stroke="#f59e0b" stroke-width="1" opacity="0.4"/>
  <text x="400" y="222" font-family="Arial, sans-serif" font-size="13" fill="#f59e0b" text-anchor="middle" font-weight="bold">EVENING</text>
  <line x1="330" y1="232" x2="470" y2="232" stroke="#f59e0b" stroke-width="0.5" opacity="0.3"/>
  <text x="400" y="250" font-family="Arial, sans-serif" font-size="9" fill="#c0c0c0" text-anchor="middle" opacity="0.7">Lights: 60% Warm</text>
  <text x="400" y="265" font-family="Arial, sans-serif" font-size="9" fill="#c0c0c0" text-anchor="middle" opacity="0.7">Temp: 22C</text>
  <text x="400" y="280" font-family="Arial, sans-serif" font-size="9" fill="#c0c0c0" text-anchor="middle" opacity="0.6">Blinds: 50%</text>
  <text x="400" y="295" font-family="Arial, sans-serif" font-size="9" fill="#f59e0b" text-anchor="middle" opacity="0.7">Sunset Trigger</text>
  <!-- NIGHT SCENE -->
  <rect x="580" y="110" width="170" height="200" fill="#001015" rx="8" stroke="#00d4ff" stroke-width="1.5" opacity="0.8"/>
  <rect x="595" y="125" width="140" height="80" fill="#030810" rx="4"/>
  <circle cx="665" cy="155" r="18" fill="#1a1a35" opacity="0.9"/>
  <circle cx="672" cy="150" r="14" fill="#c8c0d8" opacity="0.12"/>
  <circle cx="620" cy="140" r="2" fill="#00d4ff" opacity="0.7"/>
  <circle cx="640" cy="132" r="1.5" fill="#ffffff" opacity="0.6"/>
  <circle cx="700" cy="135" r="2" fill="#ffffff" opacity="0.5"/>
  <text x="665" y="222" font-family="Arial, sans-serif" font-size="13" fill="#00d4ff" text-anchor="middle" font-weight="bold">NIGHT</text>
  <line x1="595" y1="232" x2="735" y2="232" stroke="#00d4ff" stroke-width="0.5" opacity="0.4"/>
  <text x="665" y="250" font-family="Arial, sans-serif" font-size="9" fill="#c0c0c0" text-anchor="middle" opacity="0.7">Lights: Off</text>
  <text x="665" y="265" font-family="Arial, sans-serif" font-size="9" fill="#c0c0c0" text-anchor="middle" opacity="0.7">Temp: 18C</text>
  <text x="665" y="280" font-family="Arial, sans-serif" font-size="9" fill="#c0c0c0" text-anchor="middle" opacity="0.6">Blinds: Closed</text>
  <text x="665" y="295" font-family="Arial, sans-serif" font-size="9" fill="#00d4ff" text-anchor="middle" opacity="0.7">23:00 Trigger</text>
  <!-- Sub-scenes bottom row -->
  <rect x="60" y="380" width="145" height="130" fill="#001015" rx="6" stroke="#c0c0c0" stroke-width="0.5" opacity="0.5"/>
  <circle cx="132" cy="415" r="18" fill="#1a2840" stroke="#c0c0c0" stroke-width="1" opacity="0.5"/>
  <text x="132" y="448" font-family="Arial, sans-serif" font-size="10" fill="#c0c0c0" text-anchor="middle" opacity="0.7">AWAY</text>
  <text x="132" y="465" font-family="Arial, sans-serif" font-size="8" fill="#c0c0c0" text-anchor="middle" opacity="0.5">Security on</text>
  <text x="132" y="480" font-family="Arial, sans-serif" font-size="8" fill="#c0c0c0" text-anchor="middle" opacity="0.4">Geo-trigger</text>
  <rect x="225" y="380" width="145" height="130" fill="#001015" rx="6" stroke="#8b5cf6" stroke-width="1" opacity="0.6"/>
  <circle cx="297" cy="415" r="18" fill="#1a1530" stroke="#8b5cf6" stroke-width="1" opacity="0.6"/>
  <rect x="284" y="407" width="26" height="18" fill="#8b5cf6" opacity="0.25" rx="2"/>
  <text x="297" y="448" font-family="Arial, sans-serif" font-size="10" fill="#8b5cf6" text-anchor="middle" opacity="0.9">CINEMA</text>
  <text x="297" y="465" font-family="Arial, sans-serif" font-size="8" fill="#c0c0c0" text-anchor="middle" opacity="0.5">Dim + Blackout</text>
  <text x="297" y="480" font-family="Arial, sans-serif" font-size="8" fill="#c0c0c0" text-anchor="middle" opacity="0.4">Manual</text>
  <rect x="390" y="380" width="145" height="130" fill="#001015" rx="6" stroke="#00ff88" stroke-width="1" opacity="0.5"/>
  <circle cx="462" cy="415" r="18" fill="#0a1a0a" stroke="#00ff88" stroke-width="1" opacity="0.5"/>
  <text x="462" y="448" font-family="Arial, sans-serif" font-size="10" fill="#00ff88" text-anchor="middle" opacity="0.8">GUEST</text>
  <text x="462" y="465" font-family="Arial, sans-serif" font-size="8" fill="#c0c0c0" text-anchor="middle" opacity="0.5">Welcoming</text>
  <text x="462" y="480" font-family="Arial, sans-serif" font-size="8" fill="#c0c0c0" text-anchor="middle" opacity="0.4">App trigger</text>
  <rect x="555" y="380" width="185" height="130" fill="#001015" rx="6" stroke="#00d4ff" stroke-width="1" opacity="0.5"/>
  <circle cx="647" cy="415" r="18" fill="#001a22" stroke="#00d4ff" stroke-width="1" opacity="0.5"/>
  <text x="647" y="448" font-family="Arial, sans-serif" font-size="10" fill="#00d4ff" text-anchor="middle" opacity="0.8">HOLIDAY</text>
  <text x="647" y="465" font-family="Arial, sans-serif" font-size="8" fill="#c0c0c0" text-anchor="middle" opacity="0.5">Presence sim</text>
  <text x="647" y="480" font-family="Arial, sans-serif" font-size="8" fill="#c0c0c0" text-anchor="middle" opacity="0.4">Scheduled</text>
  <!-- Connection lines to sub-scenes -->
  <line x1="400" y1="310" x2="132" y2="375" stroke="#1e3050" stroke-width="1" opacity="0.3" stroke-dasharray="4,3"/>
  <line x1="400" y1="310" x2="297" y2="375" stroke="#1e3050" stroke-width="1" opacity="0.3" stroke-dasharray="4,3"/>
  <line x1="400" y1="310" x2="462" y2="375" stroke="#1e3050" stroke-width="1" opacity="0.3" stroke-dasharray="4,3"/>
  <line x1="400" y1="310" x2="647" y2="375" stroke="#1e3050" stroke-width="1" opacity="0.3" stroke-dasharray="4,3"/>
  <text x="400" y="560" font-family="Arial, sans-serif" font-size="12" font-weight="300" letter-spacing="3" fill="#c0c0c0" text-anchor="middle" opacity="0.8">AUTOMATION SCENE FLOW</text>
</svg>
