<svg xmlns="http://www.w3.org/2000/svg" viewBox="0 0 800 600" role="img" aria-label="Zakey Platform - Three-Device Composite">
  <defs>
    <radialGradient id="ph-bg" cx="50%" cy="50%" r="70%">
      <stop offset="0%" stop-color="#0a1630"/>
      <stop offset="100%" stop-color="#05070d"/>
    </radialGradient>
    <radialGradient id="ph-glow-c" cx="50%" cy="50%" r="50%">
      <stop offset="0%" stop-color="#22d3ee" stop-opacity="0.12"/>
      <stop offset="100%" stop-color="#22d3ee" stop-opacity="0"/>
    </radialGradient>
    <filter id="ph-glow">
      <feGaussianBlur stdDeviation="8" result="blur"/>
      <feMerge><feMergeNode in="blur"/><feMergeNode in="SourceGraphic"/></feMerge>
    </filter>
  </defs>
  <rect width="800" height="600" fill="url(#ph-bg)"/>
  <ellipse cx="400" cy="310" rx="180" ry="120" fill="url(#ph-glow-c)"/>
  <!-- LEFT: Smartphone -->
  <g transform="translate(130,130)">
    <rect x="0" y="0" width="100" height="200" rx="14" fill="#080f1c" stroke="#22d3ee" stroke-width="1.2" stroke-opacity="0.5" filter="url(#ph-glow)"/>
    <rect x="6" y="6" width="88" height="188" rx="10" fill="#040a14"/>
    <rect x="8" y="20" width="84" height="174" rx="8" fill="#071628"/>
    <rect x="8" y="20" width="84" height="28" rx="8" fill="#0a1e38"/>
    <text x="50" y="33" text-anchor="middle" font-family="system-ui, sans-serif" font-size="6" font-weight="700" fill="#22d3ee">ZAKEY</text>
    <text x="50" y="43" text-anchor="middle" font-family="system-ui, sans-serif" font-size="5" fill="rgba(255,255,255,0.5)">Good Morning</text>
    <rect x="12" y="54" width="36" height="28" rx="3" fill="#0c1e38" stroke="rgba(34,211,238,0.2)" stroke-width="0.5"/>
    <text x="30" y="70" text-anchor="middle" font-family="system-ui, sans-serif" font-size="4.5" fill="rgba(255,255,255,0.6)">Living</text>
    <rect x="52" y="54" width="36" height="28" rx="3" fill="#0c1e38" stroke="rgba(34,211,238,0.2)" stroke-width="0.5"/>
    <text x="70" y="70" text-anchor="middle" font-family="system-ui, sans-serif" font-size="4.5" fill="rgba(255,255,255,0.6)">Bedroom</text>
    <rect x="12" y="86" width="36" height="28" rx="3" fill="#0c1e38" stroke="rgba(34,211,238,0.2)" stroke-width="0.5"/>
    <text x="30" y="102" text-anchor="middle" font-family="system-ui, sans-serif" font-size="4.5" fill="rgba(255,255,255,0.6)">Kitchen</text>
    <rect x="52" y="86" width="36" height="28" rx="3" fill="#22d3ee" fill-opacity="0.15" stroke="#22d3ee" stroke-width="0.8"/>
    <text x="70" y="102" text-anchor="middle" font-family="system-ui, sans-serif" font-size="4.5" fill="#22d3ee">Active</text>
    <rect x="12" y="120" width="76" height="18" rx="3" fill="#091628"/>
    <text x="50" y="131" text-anchor="middle" font-family="system-ui, sans-serif" font-size="4.5" fill="rgba(34,211,238,0.6)">Morning Scene</text>
    <rect x="12" y="143" width="76" height="14" rx="3" fill="#0a1a30"/>
    <text x="50" y="152" text-anchor="middle" font-family="system-ui, sans-serif" font-size="4.5" fill="rgba(255,255,255,0.4)">2.1 kWh today</text>
    <circle cx="50" cy="192" r="5" fill="#0c1e38" stroke="rgba(34,211,238,0.3)" stroke-width="0.7"/>
  </g>
  <text x="180" y="362" text-anchor="middle" font-family="system-ui, sans-serif" font-size="9" fill="rgba(255,255,255,0.4)">Mobile App</text>
  <!-- CENTER: Wall Panel -->
  <g transform="translate(245,165)">
    <rect x="0" y="0" width="310" height="200" rx="10" fill="#060d1a" stroke="#22d3ee" stroke-width="1.6" filter="url(#ph-glow)"/>
    <rect x="6" y="6" width="298" height="188" rx="8" fill="#040a14"/>
    <rect x="8" y="8" width="294" height="184" rx="6" fill="#071628"/>
    <rect x="8" y="8" width="294" height="32" rx="6" fill="#0a1e3a"/>
    <text x="155" y="22" text-anchor="middle" font-family="system-ui, sans-serif" font-size="8" font-weight="700" fill="#22d3ee">ZAKEY PANEL</text>
    <text x="155" y="33" text-anchor="middle" font-family="system-ui, sans-serif" font-size="6" fill="rgba(255,255,255,0.4)">Smart Home Control</text>
    <rect x="16" y="46" width="85" height="56" rx="5" fill="#22d3ee" fill-opacity="0.18" stroke="#22d3ee" stroke-width="1"/>
    <text x="58" y="76" text-anchor="middle" font-family="system-ui, sans-serif" font-size="8" font-weight="600" fill="#22d3ee">Morning</text>
    <rect x="113" y="46" width="85" height="56" rx="5" fill="#0c1e38" stroke="rgba(34,211,238,0.2)" stroke-width="0.8"/>
    <text x="155" y="76" text-anchor="middle" font-family="system-ui, sans-serif" font-size="8" fill="rgba(255,255,255,0.65)">Movie</text>
    <rect x="210" y="46" width="85" height="56" rx="5" fill="#0c1e38" stroke="rgba(34,211,238,0.2)" stroke-width="0.8"/>
    <text x="252" y="76" text-anchor="middle" font-family="system-ui, sans-serif" font-size="8" fill="rgba(255,255,255,0.65)">Work</text>
    <rect x="16" y="110" width="85" height="56" rx="5" fill="#0c1e38" stroke="rgba(34,211,238,0.2)" stroke-width="0.8"/>
    <text x="58" y="140" text-anchor="middle" font-family="system-ui, sans-serif" font-size="8" fill="rgba(255,255,255,0.65)">Away</text>
    <rect x="113" y="110" width="85" height="56" rx="5" fill="#0c1e38" stroke="rgba(34,211,238,0.2)" stroke-width="0.8"/>
    <text x="155" y="140" text-anchor="middle" font-family="system-ui, sans-serif" font-size="8" fill="rgba(255,255,255,0.65)">Guest</text>
    <rect x="210" y="110" width="85" height="56" rx="5" fill="#0c1e38" stroke="rgba(34,211,238,0.2)" stroke-width="0.8"/>
    <text x="252" y="140" text-anchor="middle" font-family="system-ui, sans-serif" font-size="8" fill="rgba(255,255,255,0.65)">Sleep</text>
    <text x="155" y="183" text-anchor="middle" font-family="system-ui, sans-serif" font-size="7" fill="rgba(34,211,238,0.35)" letter-spacing="2">ZAKEY</text>
  </g>
  <text x="400" y="396" text-anchor="middle" font-family="system-ui, sans-serif" font-size="9" fill="rgba(255,255,255,0.4)">Wall Panel</text>
  <!-- RIGHT: Dashboard -->
  <g transform="translate(576,150)">
    <rect x="0" y="0" width="188" height="140" rx="8" fill="#060d1a" stroke="#22d3ee" stroke-width="1.2" stroke-opacity="0.5" filter="url(#ph-glow)"/>
    <rect x="5" y="5" width="178" height="130" rx="6" fill="#040a14"/>
    <rect x="6" y="6" width="176" height="128" rx="5" fill="#071628"/>
    <rect x="6" y="6" width="176" height="20" rx="5" fill="#0a1e38"/>
    <text x="94" y="17" text-anchor="middle" font-family="system-ui, sans-serif" font-size="6.5" font-weight="700" fill="rgba(255,255,255,0.8)">Zakey Dashboard</text>
    <rect x="10" y="30" width="38" height="28" rx="3" fill="#0c1e38" stroke="rgba(34,211,238,0.2)" stroke-width="0.5"/>
    <text x="29" y="42" text-anchor="middle" font-family="system-ui, sans-serif" font-size="7" font-weight="700" fill="#22d3ee">12</text>
    <text x="29" y="52" text-anchor="middle" font-family="system-ui, sans-serif" font-size="4" fill="rgba(255,255,255,0.4)">Properties</text>
    <rect x="52" y="30" width="38" height="28" rx="3" fill="#0c1e38" stroke="rgba(34,211,238,0.2)" stroke-width="0.5"/>
    <text x="71" y="42" text-anchor="middle" font-family="system-ui, sans-serif" font-size="7" font-weight="700" fill="#22d3ee">847</text>
    <text x="71" y="52" text-anchor="middle" font-family="system-ui, sans-serif" font-size="4" fill="rgba(255,255,255,0.4)">Devices</text>
    <rect x="94" y="30" width="38" height="28" rx="3" fill="#0c1e38" stroke="rgba(34,211,238,0.2)" stroke-width="0.5"/>
    <text x="113" y="42" text-anchor="middle" font-family="system-ui, sans-serif" font-size="6" font-weight="700" fill="#22d3ee">99.2%</text>
    <text x="113" y="52" text-anchor="middle" font-family="system-ui, sans-serif" font-size="4" fill="rgba(255,255,255,0.4)">Uptime</text>
    <rect x="136" y="30" width="40" height="28" rx="3" fill="#0c1e38" stroke="rgba(34,211,238,0.2)" stroke-width="0.5"/>
    <text x="156" y="42" text-anchor="middle" font-family="system-ui, sans-serif" font-size="6" font-weight="700" fill="#22d3ee">-18%</text>
    <text x="156" y="52" text-anchor="middle" font-family="system-ui, sans-serif" font-size="4" fill="rgba(255,255,255,0.4)">Energy</text>
    <rect x="10" y="63" width="166" height="60" rx="3" fill="#050c1a"/>
    <text x="18" y="72" font-family="system-ui, sans-serif" font-size="5" fill="rgba(34,211,238,0.5)">Device Activity</text>
    <polyline points="18,112 38,105 58,108 78,100 98,96 118,102 138,95 158,92 168,95" fill="none" stroke="#22d3ee" stroke-width="1.2" stroke-opacity="0.7"/>
    <rect x="84" y="140" width="20" height="10" rx="2" fill="#040a14"/>
    <rect x="72" y="148" width="44" height="4" rx="2" fill="#060d1a" stroke="rgba(34,211,238,0.15)" stroke-width="0.5"/>
  </g>
  <text x="670" y="326" text-anchor="middle" font-family="system-ui, sans-serif" font-size="9" fill="rgba(255,255,255,0.4)">Dashboard</text>
  <text x="400" y="450" text-anchor="middle" font-family="system-ui, sans-serif" font-size="10" fill="rgba(34,211,238,0.4)" letter-spacing="3">ZAKEY SOFTWARE PLATFORM</text>
  <text x="400" y="470" text-anchor="middle" font-family="system-ui, sans-serif" font-size="14" font-weight="600" fill="rgba(255,255,255,0.55)">Control Anywhere · Manage Everything</text>
</svg>