<svg xmlns="http://www.w3.org/2000/svg" viewBox="0 0 600 338" width="600" height="338">
  <defs>
    <linearGradient id="concreteCeilGrad" x1="0" y1="0" x2="0" y2="1">
      <stop offset="0%" stop-color="#b8b5b0"/>
      <stop offset="100%" stop-color="#a8a5a0"/>
    </linearGradient>
    <linearGradient id="floorGrad" x1="0" y1="0" x2="0" y2="1">
      <stop offset="0%" stop-color="#d0cec9"/>
      <stop offset="100%" stop-color="#bcb9b4"/>
    </linearGradient>
    <linearGradient id="glassSkyGrad" x1="0" y1="0" x2="0" y2="1">
      <stop offset="0%" stop-color="#b8cce8"/>
      <stop offset="100%" stop-color="#d0dff0"/>
    </linearGradient>
    <linearGradient id="deskGrad" x1="0" y1="0" x2="0" y2="1">
      <stop offset="0%" stop-color="#f0eeea"/>
      <stop offset="100%" stop-color="#e0deda"/>
    </linearGradient>
    <linearGradient id="monitorGrad" x1="0" y1="0" x2="0" y2="1">
      <stop offset="0%" stop-color="#1a1c28"/>
      <stop offset="100%" stop-color="#0e0f18"/>
    </linearGradient>
    <radialGradient id="ledPanel" cx="50%" cy="50%" r="50%">
      <stop offset="0%" stop-color="#fff8e8" stop-opacity="0.85"/>
      <stop offset="60%" stop-color="#fff0cc" stop-opacity="0.35"/>
      <stop offset="100%" stop-color="#ffdd88" stop-opacity="0"/>
    </radialGradient>
    <radialGradient id="pendantGlow" cx="50%" cy="50%" r="50%">
      <stop offset="0%" stop-color="#fff5cc" stop-opacity="0.92"/>
      <stop offset="45%" stop-color="#ffdd77" stop-opacity="0.45"/>
      <stop offset="100%" stop-color="#ffaa33" stop-opacity="0"/>
    </radialGradient>
    <radialGradient id="cyanPanel" cx="50%" cy="50%" r="50%">
      <stop offset="0%" stop-color="#00e5ff" stop-opacity="0.55"/>
      <stop offset="100%" stop-color="#00e5ff" stop-opacity="0"/>
    </radialGradient>
    <filter id="blur3">
      <feGaussianBlur stdDeviation="3"/>
    </filter>
    <clipPath id="officeClip">
      <rect x="430" y="0" width="170" height="338"/>
    </clipPath>
  </defs>

  <!-- ===== BACKGROUND - exposed concrete ceiling ===== -->
  <rect x="0" y="0" width="600" height="338" fill="#c8c6c0"/>
  <!-- Concrete ceiling zone -->
  <rect x="0" y="0" width="600" height="80" fill="url(#concreteCeilGrad)"/>
  <!-- Concrete texture subtle lines -->
  <line x1="0" y1="25" x2="600" y2="25" stroke="#aaa8a2" stroke-width="0.6" opacity="0.4"/>
  <line x1="0" y1="50" x2="600" y2="50" stroke="#aaa8a2" stroke-width="0.6" opacity="0.4"/>
  <!-- Ceiling perimeter LED strip -->
  <rect x="0" y="79" width="430" height="2.5" rx="1" fill="#00e5ff" opacity="0.3"/>

  <!-- ===== GLASS WALL RIGHT (cityscape) ===== -->
  <rect x="430" y="0" width="170" height="338" fill="url(#glassSkyGrad)"/>
  <!-- City building outlines against light sky -->
  <rect x="438" y="155" width="20" height="185" fill="#8a9ab0" opacity="0.55"/>
  <rect x="462" y="135" width="16" height="205" fill="#8090a8" opacity="0.5"/>
  <rect x="482" y="148" width="22" height="192" fill="#8a9ab0" opacity="0.55"/>
  <rect x="508" y="120" width="18" height="220" fill="#8090a8" opacity="0.5"/>
  <rect x="530" y="142" width="25" height="198" fill="#8a9ab0" opacity="0.55"/>
  <rect x="558" y="130" width="20" height="210" fill="#8090a8" opacity="0.5"/>
  <rect x="580" y="150" width="20" height="190" fill="#8a9ab0" opacity="0.48"/>
  <!-- Building window details -->
  <rect x="441" y="165" width="4" height="6" fill="#b0c0d8" opacity="0.45"/>
  <rect x="449" y="165" width="4" height="6" fill="#b0c0d8" opacity="0.45"/>
  <rect x="441" y="178" width="4" height="6" fill="#b0c0d8" opacity="0.45"/>
  <rect x="449" y="178" width="4" height="6" fill="#b0c0d8" opacity="0.45"/>
  <rect x="512" y="130" width="4" height="6" fill="#b0c0d8" opacity="0.45"/>
  <rect x="520" y="130" width="4" height="6" fill="#b0c0d8" opacity="0.45"/>
  <rect x="512" y="144" width="4" height="6" fill="#b0c0d8" opacity="0.45"/>
  <!-- Glass wall frame -->
  <line x1="430" y1="0" x2="430" y2="338" stroke="#a0a8b8" stroke-width="3" opacity="0.7"/>
  <line x1="430" y1="170" x2="600" y2="170" stroke="#a0a8b8" stroke-width="1.5" opacity="0.4"/>
  <!-- Glass highlight -->
  <rect x="430" y="0" width="12" height="338" fill="white" opacity="0.06"/>

  <!-- ===== FLOOR (polished concrete) ===== -->
  <rect x="0" y="260" width="430" height="78" fill="url(#floorGrad)"/>
  <!-- Subtle reflection near desks -->
  <rect x="0" y="260" width="430" height="20" fill="#d8d6d0" opacity="0.4"/>
  <!-- Floor grid lines -->
  <line x1="0" y1="290" x2="430" y2="290" stroke="#b8b5b0" stroke-width="0.6" opacity="0.4"/>
  <line x1="0" y1="318" x2="430" y2="318" stroke="#b8b5b0" stroke-width="0.6" opacity="0.4"/>
  <line x1="100" y1="260" x2="100" y2="338" stroke="#b8b5b0" stroke-width="0.6" opacity="0.35"/>
  <line x1="215" y1="260" x2="215" y2="338" stroke="#b8b5b0" stroke-width="0.6" opacity="0.35"/>
  <line x1="330" y1="260" x2="330" y2="338" stroke="#b8b5b0" stroke-width="0.6" opacity="0.35"/>

  <!-- ===== LED PANEL LIGHTS (rectangular diffusers on ceiling) ===== -->
  <!-- Row 1 -->
  <rect x="45" y="10" width="75" height="30" rx="2" fill="#f8f5ee"/>
  <rect x="45" y="10" width="75" height="30" rx="2" fill="none" stroke="#a8a5a0" stroke-width="0.8"/>
  <ellipse cx="82" cy="55" rx="55" ry="50" fill="url(#ledPanel)" opacity="0.7"/>
  <rect x="165" y="10" width="75" height="30" rx="2" fill="#f8f5ee"/>
  <rect x="165" y="10" width="75" height="30" rx="2" fill="none" stroke="#a8a5a0" stroke-width="0.8"/>
  <ellipse cx="202" cy="55" rx="55" ry="50" fill="url(#ledPanel)" opacity="0.7"/>
  <rect x="285" y="10" width="75" height="30" rx="2" fill="#f8f5ee"/>
  <rect x="285" y="10" width="75" height="30" rx="2" fill="none" stroke="#a8a5a0" stroke-width="0.8"/>
  <ellipse cx="322" cy="55" rx="55" ry="50" fill="url(#ledPanel)" opacity="0.7"/>
  <rect x="390" y="10" width="70" height="30" rx="2" fill="#f8f5ee"/>
  <rect x="390" y="10" width="70" height="30" rx="2" fill="none" stroke="#a8a5a0" stroke-width="0.8"/>
  <ellipse cx="425" cy="55" rx="50" ry="45" fill="url(#ledPanel)" opacity="0.65"/>

  <!-- ===== PENDANT INDUSTRIAL LIGHTS ===== -->
  <!-- Pendant 1 -->
  <line x1="120" y1="0" x2="120" y2="55" stroke="#555" stroke-width="2.5"/>
  <ellipse cx="120" cy="58" rx="18" ry="7" fill="#1a1a1a"/>
  <ellipse cx="120" cy="58" rx="70" ry="60" fill="url(#pendantGlow)" opacity="0.6"/>
  <!-- Pendant 2 -->
  <line x1="240" y1="0" x2="240" y2="55" stroke="#555" stroke-width="2.5"/>
  <ellipse cx="240" cy="58" rx="18" ry="7" fill="#1a1a1a"/>
  <ellipse cx="240" cy="58" rx="70" ry="60" fill="url(#pendantGlow)" opacity="0.6"/>
  <!-- Pendant 3 -->
  <line x1="355" y1="0" x2="355" y2="55" stroke="#555" stroke-width="2.5"/>
  <ellipse cx="355" cy="58" rx="18" ry="7" fill="#1a1a1a"/>
  <ellipse cx="355" cy="58" rx="65" ry="58" fill="url(#pendantGlow)" opacity="0.55"/>

  <!-- ===== WORKSTATION ROWS (perspective) ===== -->
  <!-- Row 1 desks (closer, larger) -->
  <!-- Desk 1-1 -->
  <rect x="25" y="200" width="88" height="62" rx="3" fill="url(#deskGrad)"/>
  <rect x="25" y="200" width="88" height="5" rx="2" fill="#e0deda"/>
  <!-- Monitor set 1-1 -->
  <rect x="32" y="168" width="36" height="28" rx="2" fill="url(#monitorGrad)"/>
  <rect x="34" y="170" width="32" height="24" rx="1" fill="#0d1520"/>
  <rect x="36" y="173" width="20" height="3" rx="1" fill="#0a2a4a" opacity="0.6"/>
  <rect x="36" y="178" width="16" height="8" rx="1" fill="#051525" opacity="0.7"/>
  <!-- Cyan data viz on screen -->
  <rect x="38" y="179" width="8" height="5" rx="1" fill="#00e5ff" opacity="0.4"/>
  <rect x="48" y="181" width="5" height="3" rx="1" fill="#00e5ff" opacity="0.35"/>
  <rect x="55" y="180" width="7" height="4" rx="1" fill="#00e5ff" opacity="0.38"/>
  <rect x="32" y="196" width="36" height="3" rx="1" fill="#888"/>
  <!-- Monitor 2 dual -->
  <rect x="72" y="170" width="30" height="26" rx="2" fill="url(#monitorGrad)"/>
  <rect x="74" y="172" width="26" height="22" rx="1" fill="#0d1520"/>
  <rect x="76" y="175" width="15" height="2" rx="1" fill="#00e5ff" opacity="0.4"/>
  <rect x="76" y="180" width="10" height="6" rx="1" fill="#051525" opacity="0.6"/>
  <!-- Chair 1-1 (light gray mesh) -->
  <ellipse cx="69" cy="270" rx="30" ry="10" fill="#9a9a9a" opacity="0.6"/>
  <rect x="39" y="255" width="60" height="22" rx="8" fill="#888890" opacity="0.65"/>

  <!-- Desk 1-2 -->
  <rect x="135" y="198" width="88" height="62" rx="3" fill="url(#deskGrad)"/>
  <rect x="135" y="198" width="88" height="5" rx="2" fill="#e0deda"/>
  <rect x="142" y="167" width="36" height="28" rx="2" fill="url(#monitorGrad)"/>
  <rect x="144" y="169" width="32" height="24" rx="1" fill="#0d1520"/>
  <rect x="146" y="172" width="20" height="3" rx="1" fill="#00e5ff" opacity="0.38"/>
  <rect x="146" y="177" width="28" height="8" rx="1" fill="#051525" opacity="0.65"/>
  <rect x="148" y="178" width="10" height="5" rx="1" fill="#00e5ff" opacity="0.35"/>
  <rect x="142" y="195" width="36" height="3" rx="1" fill="#888"/>
  <rect x="182" y="169" width="28" height="26" rx="2" fill="url(#monitorGrad)"/>
  <rect x="184" y="171" width="24" height="22" rx="1" fill="#0d1520"/>
  <ellipse cx="179" cy="268" rx="30" ry="10" fill="#9a9a9a" opacity="0.6"/>
  <rect x="149" y="254" width="60" height="22" rx="8" fill="#888890" opacity="0.65"/>

  <!-- Desk 1-3 -->
  <rect x="248" y="196" width="85" height="62" rx="3" fill="url(#deskGrad)"/>
  <rect x="248" y="196" width="85" height="5" rx="2" fill="#e0deda"/>
  <rect x="254" y="165" width="34" height="28" rx="2" fill="url(#monitorGrad)"/>
  <rect x="256" y="167" width="30" height="24" rx="1" fill="#0d1520"/>
  <rect x="258" y="170" width="18" height="3" rx="1" fill="#00e5ff" opacity="0.38"/>
  <rect x="258" y="176" width="24" height="7" rx="1" fill="#051525" opacity="0.6"/>
  <rect x="254" y="193" width="34" height="3" rx="1" fill="#888"/>
  <rect x="292" y="167" width="28" height="26" rx="2" fill="url(#monitorGrad)"/>
  <rect x="294" y="169" width="24" height="22" rx="1" fill="#0d1520"/>
  <ellipse cx="290" cy="266" rx="28" ry="10" fill="#9a9a9a" opacity="0.6"/>
  <rect x="262" y="252" width="56" height="20" rx="7" fill="#888890" opacity="0.65"/>

  <!-- Desk 1-4 -->
  <rect x="352" y="194" width="78" height="62" rx="3" fill="url(#deskGrad)"/>
  <rect x="352" y="194" width="78" height="5" rx="2" fill="#e0deda"/>
  <rect x="357" y="163" width="32" height="28" rx="2" fill="url(#monitorGrad)"/>
  <rect x="359" y="165" width="28" height="24" rx="1" fill="#0d1520"/>
  <rect x="361" y="168" width="16" height="3" rx="1" fill="#00e5ff" opacity="0.38"/>
  <rect x="357" y="191" width="32" height="3" rx="1" fill="#888"/>
  <rect x="393" y="165" width="26" height="26" rx="2" fill="url(#monitorGrad)"/>
  <rect x="395" y="167" width="22" height="22" rx="1" fill="#0d1520"/>
  <ellipse cx="391" cy="264" rx="27" ry="9" fill="#9a9a9a" opacity="0.6"/>
  <rect x="364" y="250" width="54" height="20" rx="7" fill="#888890" opacity="0.65"/>

  <!-- Row 2 desks (further, smaller) -->
  <!-- Desk 2-1 -->
  <rect x="30" y="140" width="70" height="48" rx="2" fill="url(#deskGrad)" opacity="0.85"/>
  <rect x="35" y="118" width="28" height="20" rx="2" fill="url(#monitorGrad)"/>
  <rect x="37" y="120" width="24" height="16" rx="1" fill="#0d1520"/>
  <rect x="39" y="122" width="14" height="2" rx="1" fill="#00e5ff" opacity="0.35"/>
  <!-- Desk 2-2 -->
  <rect x="120" y="138" width="70" height="48" rx="2" fill="url(#deskGrad)" opacity="0.85"/>
  <rect x="126" y="116" width="28" height="20" rx="2" fill="url(#monitorGrad)"/>
  <rect x="128" y="118" width="24" height="16" rx="1" fill="#0d1520"/>
  <rect x="130" y="121" width="14" height="2" rx="1" fill="#00e5ff" opacity="0.35"/>
  <!-- Desk 2-3 -->
  <rect x="218" y="136" width="68" height="48" rx="2" fill="url(#deskGrad)" opacity="0.85"/>
  <rect x="223" y="114" width="28" height="20" rx="2" fill="url(#monitorGrad)"/>
  <rect x="225" y="116" width="24" height="16" rx="1" fill="#0d1520"/>
  <!-- Desk 2-4 -->
  <rect x="310" y="134" width="65" height="48" rx="2" fill="url(#deskGrad)" opacity="0.85"/>
  <rect x="314" y="112" width="26" height="20" rx="2" fill="url(#monitorGrad)"/>
  <rect x="316" y="114" width="22" height="16" rx="1" fill="#0d1520"/>
  <!-- Row 2 chairs (small) -->
  <ellipse cx="65" cy="192" rx="22" ry="7" fill="#9a9a9a" opacity="0.5"/>
  <ellipse cx="155" cy="190" rx="22" ry="7" fill="#9a9a9a" opacity="0.5"/>
  <ellipse cx="252" cy="188" rx="22" ry="7" fill="#9a9a9a" opacity="0.5"/>
  <ellipse cx="342" cy="186" rx="22" ry="7" fill="#9a9a9a" opacity="0.5"/>

  <!-- ===== ZAKEY TOUCHSCREEN PANEL ON LEFT WALL ===== -->
  <rect x="0" y="158" width="24" height="75" rx="4" fill="#181828"/>
  <!-- Dashboard display -->
  <rect x="2" y="163" width="20" height="50" rx="2" fill="#0a1020"/>
  <!-- Cyan dashboard lines -->
  <rect x="4" y="167" width="16" height="2" rx="1" fill="#00e5ff" opacity="0.8"/>
  <rect x="4" y="172" width="10" height="2" rx="1" fill="#00e5ff" opacity="0.6"/>
  <rect x="4" y="177" width="16" height="8" rx="1" fill="#00e5ff" opacity="0.1"/>
  <rect x="5" y="178" width="4" height="6" rx="1" fill="#00e5ff" opacity="0.5"/>
  <rect x="11" y="180" width="4" height="4" rx="1" fill="#00e5ff" opacity="0.45"/>
  <rect x="17" y="179" width="2" height="5" rx="1" fill="#00e5ff" opacity="0.4"/>
  <rect x="4" y="190" width="16" height="1.5" rx="1" fill="#00e5ff" opacity="0.4"/>
  <rect x="4" y="195" width="12" height="1.5" rx="1" fill="#00e5ff" opacity="0.35"/>
  <rect x="4" y="200" width="16" height="1.5" rx="1" fill="#00e5ff" opacity="0.3"/>
  <!-- Status dot -->
  <circle cx="12" cy="224" r="4" fill="#00e5ff" opacity="0.9"/>
  <!-- Panel glow -->
  <ellipse cx="12" cy="196" rx="22" ry="48" fill="url(#cyanPanel)" opacity="0.45"/>

  <!-- ===== POTTED FLOOR PLANTS ===== -->
  <!-- Plant 1 -->
  <rect x="405" y="248" width="18" height="16" rx="3" fill="#6a5040"/>
  <ellipse cx="414" cy="244" rx="16" ry="22" fill="#2a5a30" opacity="0.9"/>
  <ellipse cx="408" cy="242" rx="10" ry="14" fill="#346040" opacity="0.8"/>
  <ellipse cx="422" cy="240" rx="9" ry="13" fill="#2a5530" opacity="0.8"/>
  <!-- Plant 2 -->
  <rect x="8" y="258" width="16" height="14" rx="3" fill="#6a5040"/>
  <ellipse cx="16" cy="254" rx="14" ry="18" fill="#2a5a30" opacity="0.9"/>
  <ellipse cx="10" cy="252" rx="9" ry="12" fill="#346040" opacity="0.8"/>
</svg>
